<svg xmlns="http://www.w3.org/2000/svg" viewBox="0 0 200 200" xmlns:c2pa="http://c2pa.org/manifest"><title>Trams and dusty trees: Highbury</title><defs><clipPath id="highbury-k1"><path d="M0 0L200 0L200 200L0 200ZM46 96L150 96L150 146L46 146ZM46 96L34.7 89.5L34.7 139.5L46 146ZM44 96Q45 91 54 91L142 91Q151 91 152 96ZM45 140L151 140L151 146L45 146ZM90 92L106 92L106 95.4L90 95.4ZM109 92L117 92L117 95.4L109 95.4Z" clip-rule="evenodd"/></clipPath><clipPath id="highbury-k2"><path d="M52 111.9L47.6 121.6L37.2 127.2L23.2 127.8L15.1 117.7L19.7 107.5L25.3 99L37.8 93.7L49.6 100.8Z"/></clipPath><clipPath id="highbury-k3"><path d="M52 111.9L47.6 121.6L37.2 127.2L23.2 127.8L15.1 117.7L19.7 107.5L25.3 99L37.8 93.7L49.6 100.8Z"/></clipPath><clipPath id="highbury-k4"><path d="M133.3 105.3L130.3 118.3L115.6 122.9L100.3 122.5L93 111.2L94.9 100L102.4 91.2L115.5 88.3L128.3 93.7Z"/></clipPath><clipPath id="highbury-k5"><path d="M133.3 105.3L130.3 118.3L115.6 122.9L100.3 122.5L93 111.2L94.9 100L102.4 91.2L115.5 88.3L128.3 93.7Z"/></clipPath><clipPath id="highbury-k6"><path d="M191.7 115.3L188 123.8L178.7 128.4L166.2 129.7L159.4 120.4L157.8 109.7L166.4 101.2L179.1 100.2L189.3 105.8Z"/></clipPath><clipPath id="highbury-k7"><path d="M191.7 115.3L188 123.8L178.7 128.4L166.2 129.7L159.4 120.4L157.8 109.7L166.4 101.2L179.1 100.2L189.3 105.8Z"/></clipPath><clipPath id="highbury-k8"><path d="M0 122L200 122L200 162L0 162Z"/></clipPath><clipPath id="highbury-k9"><path d="M46 96L34.7 89.5L34.7 139.5L46 146Z"/></clipPath><clipPath id="highbury-k10"><path d="M44 96Q45 91 54 91L142 91Q151 91 152 96Z"/></clipPath><clipPath id="highbury-k11"><path d="M51 99L61.4 99L61.4 113L51 113Z"/></clipPath><clipPath id="highbury-k12"><path d="M51 122L61.4 122L61.4 140L51 140Z"/></clipPath><clipPath id="highbury-k13"><path d="M65.2 99L75.6 99L75.6 113L65.2 113Z"/></clipPath><clipPath id="highbury-k14"><path d="M65.2 122L75.6 122L75.6 140L65.2 140Z"/></clipPath><clipPath id="highbury-k15"><path d="M79.4 99L89.8 99L89.8 113L79.4 113Z"/></clipPath><clipPath id="highbury-k16"><path d="M79.4 122L89.8 122L89.8 140L79.4 140Z"/></clipPath><clipPath id="highbury-k17"><path d="M93.6 99L104 99L104 113L93.6 113Z"/></clipPath><clipPath id="highbury-k18"><path d="M93.6 122L104 122L104 140L93.6 140Z"/></clipPath><clipPath id="highbury-k19"><path d="M107.8 99L118.2 99L118.2 113L107.8 113Z"/></clipPath><clipPath id="highbury-k20"><path d="M107.8 122L118.2 122L118.2 140L107.8 140Z"/></clipPath><clipPath id="highbury-k21"><path d="M122 99L132.4 99L132.4 113L122 113Z"/></clipPath><clipPath id="highbury-k22"><path d="M122 122L132.4 122L132.4 140L122 140Z"/></clipPath><clipPath id="highbury-k23"><path d="M136.2 99L146.6 99L146.6 113L136.2 113Z"/></clipPath><clipPath id="highbury-k24"><path d="M136.2 122L146.6 122L146.6 140L136.2 140Z"/></clipPath><clipPath id="highbury-k25"><path d="M45 140L151 140L151 146L45 146Z"/></clipPath></defs><g clip-path="url(#highbury-k1)"><path d="M31.8 158L32.4 123.9L35.6 123.9L36.4 158Z" fill="none" stroke="currentColor" stroke-width="0.7"/><path d="M32.2 155l1.7 0" fill="none" stroke="currentColor" stroke-width="1.2" stroke-linecap="butt"/><path d="M33.1 149.8l0.8 0" fill="none" stroke="currentColor" stroke-width="1.2" stroke-linecap="butt"/><path d="M32.9 144.7l1 0" fill="none" stroke="currentColor" stroke-width="1.2" stroke-linecap="butt"/><path d="M33.3 139.5l1.7 0" fill="none" stroke="currentColor" stroke-width="1.2" stroke-linecap="butt"/><path d="M32.6 134.3l1.4 0" fill="none" stroke="currentColor" stroke-width="1.2" stroke-linecap="butt"/><path d="M32.8 129.2l1.1 0" fill="none" stroke="currentColor" stroke-width="1.2" stroke-linecap="butt"/><path d="M52 111.9L47.6 121.6L37.2 127.2L23.2 127.8L15.1 117.7L19.7 107.5L25.3 99L37.8 93.7L49.6 100.8Z" fill="none" stroke="currentColor" stroke-width="0.6"/><path d="M28.8 69.1L77.2 109.7M27.5 70.2L75 110M27.1 72.1L74.1 111.6M26.5 73.8L74 113.7M25.7 75.4L71.7 114M23.1 75.4L72.3 116.7M22.9 77.5L71.1 117.9M20.6 77.7L68.4 117.8M19.3 78.9L67.3 119.2M19.3 81L66.1 120.3M19 83.1L66.3 122.7M16.2 82.9L63.9 123M16.3 85.2L64 125.2M14.6 86L61.8 125.6M13.3 87.1L60.6 126.9M11.6 88L60.8 129.2M11.2 89.8L60.3 131M11.1 91.9L57.6 131M9.1 92.5L58.1 133.6M7.3 93.2L56.8 134.7M6.9 95.1L54.7 135.2M5.4 96.1L54.2 137M4.1 97.2L53.4 138.5M3.9 99.2L52 139.6M3.5 101.1L50.1 140.2M1.1 101.3L50 142.3M1.7 104L47.8 142.7M-0.3 104.6L47.5 144.7M-1.2 106L46 145.6M-3.7 106.2L44.9 146.9M-3.6 108.4L45.1 149.3M-4.4 110L43 149.8M-5.2 111.6L42.7 151.7M-7.8 111.6L40.2 151.9M-8.4 113.3L39.1 153.2" fill="none" stroke="currentColor" stroke-width="0.3" stroke-linecap="butt" clip-path="url(#highbury-k2)"/><path d="M42.5 81.7L75.1 109.1M41.5 83L74.1 110.4M40.4 84.3L73 111.7M39.3 85.6L71.9 113M38.2 86.9L70.8 114.3M37.1 88.2L69.7 115.6M36 89.5L68.6 116.9M34.9 90.8L67.5 118.2M33.8 92.1L66.4 119.5M32.7 93.4L65.3 120.8M31.6 94.7L64.2 122.1M30.5 96L63.1 123.4M29.4 97.3L62 124.7M28.3 98.6L60.9 126M27.2 100L59.9 127.3M26.2 101.3L58.8 128.6M25.1 102.6L57.7 129.9M24 103.9L56.6 131.2M22.9 105.2L55.5 132.5M21.8 106.5L54.4 133.8M20.7 107.8L53.3 135.1M19.6 109.1L52.2 136.4M18.5 110.4L51.1 137.7M17.4 111.7L50 139M16.3 113L48.9 140.3M15.2 114.3L47.8 141.6" fill="none" stroke="currentColor" stroke-width="0.3" stroke-linecap="butt" clip-path="url(#highbury-k3)"/><path d="M34 123.9L30 113.9M34 127L39 115.9" fill="none" stroke="currentColor" stroke-width="0.5"/><path d="M109.8 157L110.4 118.5L113.6 118.5L114.4 157Z" fill="none" stroke="currentColor" stroke-width="0.7"/><path d="M111.2 154l1.3 0" fill="none" stroke="currentColor" stroke-width="1.2" stroke-linecap="butt"/><path d="M110.5 148.2l1.8 0" fill="none" stroke="currentColor" stroke-width="1.2" stroke-linecap="butt"/><path d="M110.8 142.3l1.4 0" fill="none" stroke="currentColor" stroke-width="1.2" stroke-linecap="butt"/><path d="M111.4 136.5l1.1 0" fill="none" stroke="currentColor" stroke-width="1.2" stroke-linecap="butt"/><path d="M110.7 130.7l1.7 0" fill="none" stroke="currentColor" stroke-width="1.2" stroke-linecap="butt"/><path d="M110.6 124.8l1.7 0" fill="none" stroke="currentColor" stroke-width="1.2" stroke-linecap="butt"/><path d="M133.3 105.3L130.3 118.3L115.6 122.9L100.3 122.5L93 111.2L94.9 100L102.4 91.2L115.5 88.3L128.3 93.7Z" fill="none" stroke="currentColor" stroke-width="0.6"/><path d="M106.8 58.8L158.5 102.2M106.1 60.5L157.7 103.8M104.1 60.9L156.9 105.3M104.5 63.5L155 105.9M101.9 63.6L154.4 107.6M101.7 65.6L153.6 109.1M101.2 67.4L152.3 110.3M98 67L150.8 111.3M98.7 69.8L150.5 113.2M96.6 70.2L148.6 113.8M96.3 72.2L146.7 114.5M95.6 73.8L147.5 117.3M93.8 74.5L146.5 118.8M91.4 74.7L145.2 119.8M91.7 77.2L142.6 119.9M89.4 77.4L141.7 121.3M90 80.2L141.1 123.1M88.6 81.3L139.7 124.2M87.8 82.8L138.1 125M87 84.4L139 128M85.8 85.5L136.8 128.3M83.4 85.8L136 129.9M81.8 86.6L135.8 132M81.3 88.4L133.5 132.3M80.1 89.7L132.3 133.4M80.1 91.9L131.5 135M78.3 92.5L129.8 135.8M77.3 94L129 137.4M77.1 96L129.3 139.8M74.9 96.4L127.3 140.3M74.9 98.6L125.6 141.1M73.9 99.9L125.8 143.5M71.4 100.1L123.9 144.1M70.2 101.3L122.6 145.3M69.5 102.9L122.8 147.7M69.3 105L121 148.4M67.5 105.8L118.8 148.7M67 107.5L118.6 150.8" fill="none" stroke="currentColor" stroke-width="0.3" stroke-linecap="butt" clip-path="url(#highbury-k4)"/><path d="M121.4 72.1L157.1 102.1M120.3 73.4L156 103.4M119.2 74.7L154.9 104.7M118.1 76L153.8 106M117 77.3L152.7 107.3M115.9 78.6L151.7 108.6M114.8 79.9L150.6 109.9M113.7 81.2L149.5 111.2M112.6 82.6L148.4 112.5M111.5 83.9L147.3 113.9M110.4 85.2L146.2 115.2M109.3 86.5L145.1 116.5M108.3 87.8L144 117.8M107.2 89.1L142.9 119.1M106.1 90.4L141.8 120.4M105 91.7L140.7 121.7M103.9 93L139.6 123M102.8 94.3L138.5 124.3M101.7 95.6L137.5 125.6M100.6 96.9L136.4 126.9M99.5 98.2L135.3 128.2M98.4 99.5L134.2 129.5M97.3 100.8L133.1 130.8M96.2 102.1L132 132.1M95.1 103.4L130.9 133.4M94.1 104.7L129.8 134.7M93 106L128.7 136M91.9 107.3L127.6 137.3M90.8 108.6L126.5 138.6" fill="none" stroke="currentColor" stroke-width="0.3" stroke-linecap="butt" clip-path="url(#highbury-k5)"/><path d="M112 118.5L108 107.3M112 122L117 109.3" fill="none" stroke="currentColor" stroke-width="0.5"/><path d="M173.8 158L174.4 126.1L177.6 126.1L178.4 158Z" fill="none" stroke="currentColor" stroke-width="0.7"/><path d="M174.3 155l1.6 0" fill="none" stroke="currentColor" stroke-width="1.2" stroke-linecap="butt"/><path d="M174.7 150.2l1.1 0" fill="none" stroke="currentColor" stroke-width="1.2" stroke-linecap="butt"/><path d="M174.7 145.3l1.2 0" fill="none" stroke="currentColor" stroke-width="1.2" stroke-linecap="butt"/><path d="M174.7 140.5l1.1 0" fill="none" stroke="currentColor" stroke-width="1.2" stroke-linecap="butt"/><path d="M174.7 135.7l1.1 0" fill="none" stroke="currentColor" stroke-width="1.2" stroke-linecap="butt"/><path d="M175.1 130.8l1.4 0" fill="none" stroke="currentColor" stroke-width="1.2" stroke-linecap="butt"/><path d="M191.7 115.3L188 123.8L178.7 128.4L166.2 129.7L159.4 120.4L157.8 109.7L166.4 101.2L179.1 100.2L189.3 105.8Z" fill="none" stroke="currentColor" stroke-width="0.6"/><path d="M171.8 77L215.1 113.3M171.2 78.7L213.7 114.4M168.7 78.9L212.7 115.8M168.1 80.5L212 117.3M166.8 81.7L210.6 118.5M165.8 83L209.2 119.4M164.7 84.4L207.2 120M163.5 85.5L206.6 121.7M162.3 86.7L205.1 122.7M161.4 88.3L204.6 124.5M160.5 89.7L204.7 126.8M158.8 90.5L203.6 128.1M158.1 92.1L202.6 129.5M156.1 92.6L201.5 130.8M156.7 95.4L198.7 130.6M155.4 96.5L198.6 132.8M154.5 98L198.5 134.9M152.8 98.7L197.4 136.2M152.6 100.8L194.1 135.6M150.6 101.4L194.8 138.5M150 103.1L194.1 140.1M149.3 104.7L192.9 141.3M146.2 104.3L191.3 142.2M145.9 106.3L190.1 143.4M145.7 108.3L187.5 143.4M143.7 108.9L188.1 146.1M143.3 110.8L186.2 146.7M142.8 112.6L184.4 147.5M140.2 112.6L184.1 149.4M139.2 114L184.1 151.6M139.7 116.6L181 151.3M136.5 116.2L180.3 153" fill="none" stroke="currentColor" stroke-width="0.3" stroke-linecap="butt" clip-path="url(#highbury-k6)"/><path d="M183.7 88.1L213.2 112.8M182.6 89.4L212.1 114.1M181.5 90.7L211 115.4M180.4 92L209.9 116.7M179.3 93.3L208.8 118M178.3 94.6L207.7 119.3M177.2 95.9L206.6 120.6M176.1 97.2L205.5 121.9M175 98.5L204.4 123.2M173.9 99.8L203.3 124.5M172.8 101.1L202.3 125.8M171.7 102.4L201.2 127.2M170.6 103.7L200.1 128.5M169.5 105L199 129.8M168.4 106.3L197.9 131.1M167.3 107.6L196.8 132.4M166.2 108.9L195.7 133.7M165.1 110.2L194.6 135M164 111.5L193.5 136.3M163 112.8L192.4 137.6M161.9 114.1L191.3 138.9M160.8 115.5L190.2 140.2M159.7 116.8L189.1 141.5M158.6 118.1L188 142.8" fill="none" stroke="currentColor" stroke-width="0.3" stroke-linecap="butt" clip-path="url(#highbury-k7)"/><path d="M176 126.1L172 117.3M176 129L181 119.3" fill="none" stroke="currentColor" stroke-width="0.5"/><path d="M14.7 148.7l.01 0M125.6 157.9l.01 0M136.3 158.2l.01 0M141.5 144.1l.01 0M7.7 143.3l.01 0M62.5 143.8l.01 0M28 132.3l.01 0M144.3 156.3l.01 0M53.7 155.3l.01 0M191.9 153l.01 0M149.1 131l.01 0M66.3 143.1l.01 0M94.9 157.4l.01 0M95.9 138.4l.01 0M73.9 158.5l.01 0M159.5 150.9l.01 0M122.6 133.8l.01 0M162 137.4l.01 0M131.5 147.5l.01 0M50.8 153.1l.01 0M19.8 153.3l.01 0M114.8 150.1l.01 0M82.4 157.6l.01 0M20.1 154.7l.01 0M4.9 151.4l.01 0M171.7 159.1l.01 0M192.7 158.2l.01 0M3.4 155.9l.01 0M120.3 138.9l.01 0M180.4 151.8l.01 0M88.8 151.6l.01 0M127.8 132.8l.01 0M106.1 160.1l.01 0M51.9 157.5l.01 0M45.8 158.2l.01 0M150.8 148.4l.01 0M96.2 145.3l.01 0M88.7 140.6l.01 0M116.8 161.3l.01 0M56.9 158.6l.01 0M11.9 146l.01 0M183.7 143.4l.01 0M195.8 158.8l.01 0M136.1 153.1l.01 0M38.9 136.4l.01 0M20.4 131.7l.01 0M199.3 156.4l.01 0M39.3 159.2l.01 0M20.1 157.7l.01 0M46.3 157.4l.01 0M60.4 133.5l.01 0M121.9 146.3l.01 0M37.6 156.7l.01 0M102.9 153.5l.01 0M8.8 158.6l.01 0M193.7 148.9l.01 0M139.2 132.7l.01 0M151.1 136.6l.01 0M23.2 146.3l.01 0M103.5 128.5l.01 0M120.8 157.2l.01 0M108.3 159.1l.01 0M15.3 158l.01 0M171.4 158.5l.01 0M134.4 155.2l.01 0M10.4 159.9l.01 0M194 157.8l.01 0M163.4 148.4l.01 0M89.2 159.9l.01 0M3 134.3l.01 0M183.1 159.4l.01 0M156 155.3l.01 0M178.1 141.7l.01 0M56.7 151.3l.01 0M134.1 156.2l.01 0M94 136.4l.01 0M13.6 147.7l.01 0M98.8 146.6l.01 0M73.6 153l.01 0M177.3 144.4l.01 0M36.7 147.9l.01 0M81.3 159.3l.01 0M75.5 130.9l.01 0M56.5 147.9l.01 0M49.4 142.2l.01 0M3.8 150.6l.01 0M57.6 129.4l.01 0M22.9 159.5l.01 0M91.7 160.8l.01 0M85.3 137.1l.01 0M195.7 154.5l.01 0M6.9 134.8l.01 0M153.9 151.6l.01 0M178.3 160.2l.01 0M93 158.7l.01 0M110.1 143.2l.01 0M22 157.4l.01 0M110 135.7l.01 0M143.5 154.4l.01 0M14.9 159.9l.01 0M8.4 148.4l.01 0M111.8 147.1l.01 0M91.2 150.8l.01 0M109.4 151.3l.01 0M122.3 147l.01 0M191.8 152.9l.01 0M191.5 133.7l.01 0M49.5 151.9l.01 0M159.2 145.3l.01 0M129.4 150.4l.01 0M146.1 152.4l.01 0M102 137.3l.01 0M29.6 150.1l.01 0M37.3 154.2l.01 0M166 143.6l.01 0M7.2 150.5l.01 0M150.9 132.2l.01 0M131.7 157.4l.01 0M72.4 137.6l.01 0M53.5 155.8l.01 0M198.2 140.8l.01 0M27.4 156.9l.01 0M153.8 141.7l.01 0M85.7 138.4l.01 0M164.6 157.2l.01 0M169.3 156.1l.01 0M197.1 152.6l.01 0M58.4 150.2l.01 0M135 152.3l.01 0M6.1 144.2l.01 0M66 161l.01 0M61 160.9l.01 0M114.2 161.7l.01 0M52.8 148l.01 0M70.6 134.9l.01 0M111.2 152.1l.01 0M56 148.9l.01 0M69.7 158l.01 0M105.7 147l.01 0M127.2 150.4l.01 0M183.1 161.4l.01 0M128.6 161l.01 0M183.7 151.4l.01 0M175 161.7l.01 0M148.7 140.8l.01 0M129.7 156.6l.01 0M173.3 160.5l.01 0M133.1 148.1l.01 0M145.8 157.4l.01 0M111.4 135.4l.01 0M165.9 159l.01 0M134.6 161.9l.01 0M160.9 149.8l.01 0M62.9 139.4l.01 0M39.6 144.3l.01 0M151.9 161.5l.01 0M170.1 142.7l.01 0M16.2 144.1l.01 0M78.3 157.8l.01 0M16.3 128.1l.01 0M177.2 161.7l.01 0M6.9 147.8l.01 0M66.9 134.9l.01 0M6.2 137.2l.01 0M76.7 155.1l.01 0M25.7 159.2l.01 0M140 157.3l.01 0M78.7 148.1l.01 0M8.4 147.7l.01 0M56 128.1l.01 0M51.7 147.1l.01 0M27 158.6l.01 0M68.9 135.2l.01 0M199.7 156l.01 0M185.9 150.4l.01 0M109 128.5l.01 0M149.4 152.5l.01 0M141.3 158.1l.01 0M102.2 147.1l.01 0M163.5 155.1l.01 0M5.4 157.7l.01 0M74.8 159.6l.01 0M13.5 154l.01 0M139.2 151.2l.01 0M123.3 135.3l.01 0M4.4 151.3l.01 0M32.5 133.4l.01 0M24.4 132l.01 0M140.9 154.3l.01 0M196.9 149.6l.01 0M38.3 152.3l.01 0M30.2 151.6l.01 0M64.8 158.4l.01 0M12.8 147.6l.01 0M101 124.4l.01 0M120.7 138.9l.01 0M156.5 154.6l.01 0M33.2 160.8l.01 0M139.7 136.7l.01 0M26.2 145.2l.01 0M198.3 146.1l.01 0M192 154.5l.01 0M141.3 143.1l.01 0M199.3 157l.01 0M48.1 159.7l.01 0M199.9 159.3l.01 0M80.8 158l.01 0M187.4 141.6l.01 0M124.6 141.1l.01 0M171.8 150.9l.01 0M147.9 147.9l.01 0M194.3 160.1l.01 0M143.3 151.6l.01 0M118.4 161.6l.01 0M144.2 158.4l.01 0M58.2 155.8l.01 0M106.1 154.9l.01 0M156.6 155.6l.01 0M176.9 153.7l.01 0M153.6 148.8l.01 0M173.1 137l.01 0M125.6 156.6l.01 0M188.4 138.7l.01 0M155.4 159l.01 0M101 157.6l.01 0M23.7 161.3l.01 0M11.7 144.5l.01 0M102.8 141.2l.01 0M32.1 151.7l.01 0M37.7 156l.01 0M107.3 138.4l.01 0M176.3 143.8l.01 0M97.1 155.7l.01 0M189.1 153l.01 0M184.6 148.6l.01 0M73.4 143.1l.01 0M36.2 159.6l.01 0M93.2 158.6l.01 0M78.9 130.3l.01 0M82.4 160.4l.01 0M162.6 161.1l.01 0M190.1 161.6l.01 0M80.2 161l.01 0M180.4 150.2l.01 0M27.5 154l.01 0M199.2 144.5l.01 0M10.7 148.2l.01 0M49.5 149.8l.01 0M32.1 146.4l.01 0M53.9 147l.01 0M38.5 134.2l.01 0M183 159.1l.01 0M60.6 158.7l.01 0M88.1 141.9l.01 0M123.5 151.7l.01 0M165.9 161.7l.01 0M86.4 149.1l.01 0M111.3 143l.01 0M14.8 141.5l.01 0M162.3 140.5l.01 0M133.7 132l.01 0M180.7 152.4l.01 0M3.5 158.3l.01 0M117.2 140.6l.01 0M89.1 148l.01 0M142.3 154.8l.01 0M154.1 149.6l.01 0M118.1 141.4l.01 0M156 148.6l.01 0M59 152.4l.01 0M37.7 150.4l.01 0M74.4 137.7l.01 0M133.8 139.8l.01 0M53.4 148.8l.01 0M147.3 154.6l.01 0M173.2 143.8l.01 0M75.4 149.8l.01 0M24.1 156.5l.01 0M159.7 161.2l.01 0M138.5 152.5l.01 0M141.5 138.2l.01 0M185.4 143.6l.01 0M88.1 158.1l.01 0M108.1 136.6l.01 0M90 154.2l.01 0M3.2 159.2l.01 0M62.7 159.4l.01 0M35.1 141.9l.01 0M159.6 158l.01 0M121.3 147.9l.01 0M94 159.6l.01 0M164.3 161.9l.01 0M25.3 148.8l.01 0M57.5 151.2l.01 0M151.2 151.1l.01 0M32.9 148.5l.01 0M1 160.7l.01 0M86.9 147l.01 0M7.1 138.4l.01 0M96.7 144.3l.01 0M138.3 154.6l.01 0M153.3 152.7l.01 0M157.3 142.7l.01 0M25.1 157.6l.01 0M181.3 141.3l.01 0M70.3 161.5l.01 0M1.2 137l.01 0M143.3 150.8l.01 0M36.7 158.1l.01 0M88.2 147l.01 0M33.3 161.7l.01 0M137.1 145.9l.01 0M62.6 139.1l.01 0M168.2 153.7l.01 0M181.6 146.4l.01 0M51.4 157l.01 0M41.1 154.8l.01 0M114.8 143.5l.01 0M64.6 158.5l.01 0M16.2 144.5l.01 0M32.9 152.3l.01 0M120.1 136.5l.01 0M36.1 157.6l.01 0M182.2 161.7l.01 0M114.1 142.8l.01 0M55 153.1l.01 0M78.4 161.9l.01 0M175.8 157.8l.01 0M101.3 153.6l.01 0M24.8 144.8l.01 0M175.7 146.6l.01 0M162.4 160.2l.01 0M27.8 156.1l.01 0M182.6 126.9l.01 0M40.1 141.2l.01 0M113.5 150.8l.01 0M73.4 160.4l.01 0M96.3 152.4l.01 0M124.7 135.6l.01 0M170.4 139.7l.01 0M34.7 160.5l.01 0M131.7 144.3l.01 0M3.9 158.3l.01 0M194.3 140.6l.01 0M196.5 133.8l.01 0M190 152.3l.01 0M137.7 144.5l.01 0M13.7 152.4l.01 0M90.7 133.6l.01 0M148.6 161.6l.01 0M3 153.6l.01 0M52.3 133.3l.01 0M144.7 152.9l.01 0M162.1 130.9l.01 0M66.9 160l.01 0M94.2 155l.01 0M51.9 144.8l.01 0M127 147.4l.01 0M139 146.2l.01 0M198.5 159.9l.01 0M142.7 149.4l.01 0M111.6 142.6l.01 0M22.9 158.2l.01 0M25.3 147.6l.01 0M163.4 143.4l.01 0M130.6 161.2l.01 0M8.4 148.8l.01 0M23.9 161.3l.01 0M135.2 159.9l.01 0M157.7 155.1l.01 0M58.3 141.5l.01 0M21.3 150.5l.01 0M96.6 158.5l.01 0M82.5 135.9l.01 0M92.1 159.3l.01 0M91 151.4l.01 0M56.5 162l.01 0M168.1 128.8l.01 0M156.9 160.7l.01 0M117.4 127.2l.01 0M134 139.8l.01 0M147.5 139.8l.01 0M181.8 155.8l.01 0M2.4 147.7l.01 0M3.1 153.6l.01 0M155.8 153.6l.01 0M187.8 152.7l.01 0M2.4 156.3l.01 0M90.2 154.8l.01 0M100.4 138.3l.01 0M141.8 137.5l.01 0M14.7 126.7l.01 0M153.6 162l.01 0M6.7 145.7l.01 0M160.2 131.2l.01 0M56 151l.01 0M120.9 154.6l.01 0M186.7 149.3l.01 0M51.5 139.3l.01 0M199.5 152.3l.01 0M191 151.3l.01 0M79.5 152l.01 0M163.8 143.7l.01 0M21.2 140.7l.01 0M21.9 153.1l.01 0M103.2 148.8l.01 0M18.6 160.6l.01 0M110.4 159.8l.01 0M163.9 150.7l.01 0M20.7 155.8l.01 0M129.5 160l.01 0M100.8 150.4l.01 0M63.1 157.6l.01 0M166.6 157l.01 0M14.9 144.4l.01 0M163.2 150.4l.01 0M175.3 125l.01 0M111.4 151.4l.01 0M92.9 157.6l.01 0M172 161.5l.01 0" fill="none" stroke="currentColor" stroke-width="0.8" clip-path="url(#highbury-k8)"/></g><path d="M46 96L34.7 89.5L34.7 139.5L46 146Z" fill="none" stroke="currentColor" stroke-width="0.9"/><path d="M34.5 72.2L78.3 97.5M33.8 73.3L77.7 98.6M33.2 74.5L77 99.8M32.5 75.6L76.4 100.9M31.9 76.7L75.7 102M31.2 77.8L75.1 103.1M30.6 79L74.4 104.3M29.9 80.1L73.8 105.4M29.3 81.2L73.1 106.5M28.7 82.3L72.5 107.6M28 83.5L71.8 108.8M27.3 84.6L71.2 109.9M26.7 85.7L70.5 111M26 86.8L69.9 112.1M25.4 88L69.2 113.3M24.7 89.1L68.6 114.4M24.1 90.2L67.9 115.5M23.4 91.3L67.3 116.6M22.8 92.5L66.6 117.8M22.1 93.6L66 118.9M21.5 94.7L65.3 120M20.8 95.8L64.7 121.1M20.2 97L64 122.3M19.5 98.1L63.4 123.4M18.9 99.2L62.7 124.5M18.2 100.4L62.1 125.6M17.6 101.5L61.4 126.8M16.9 102.6L60.8 127.9M16.3 103.7L60.1 129M15.6 104.9L59.5 130.1M15 106L58.8 131.3M14.3 107.1L58.2 132.4M13.7 108.2L57.5 133.5M13.1 109.4L56.9 134.7M12.4 110.5L56.2 135.8M11.7 111.6L55.6 136.9M11.1 112.7L54.9 138M10.4 113.9L54.3 139.2M9.8 115L53.6 140.3M9.1 116.1L53 141.4M8.5 117.2L52.3 142.5M7.8 118.4L51.7 143.7M7.2 119.5L51 144.8M6.5 120.6L50.4 145.9M5.9 121.7L49.7 147M5.2 122.9L49.1 148.2M4.6 124L48.4 149.3M3.9 125.1L47.8 150.4M3.3 126.2L47.1 151.5M2.6 127.4L46.5 152.7M2 128.5L45.8 153.8M1.3 129.6L45.2 154.9M0.7 130.7L44.5 156M0 131.9L43.9 157.2" fill="none" stroke="currentColor" stroke-width="0.5" stroke-linecap="butt" clip-path="url(#highbury-k9)"/><path d="M46 96L150 96L150 146L46 146Z" fill="none" stroke="currentColor" stroke-width="1"/><path d="M44 96Q45 91 54 91L142 91Q151 91 152 96Z" fill="none" stroke="currentColor" stroke-width="0.9"/><path d="M44 90L152 90M44 91.2L152 91.2M44 92.4L152 92.4M44 93.6L152 93.6M44 94.8L152 94.8M44 96L152 96" fill="none" stroke="currentColor" stroke-width="0.3" stroke-linecap="butt" clip-path="url(#highbury-k10)"/><path d="M46 118L150 118" fill="none" stroke="currentColor" stroke-width="1.1" stroke-linecap="butt"/><path d="M46 115L150 115" fill="none" stroke="currentColor" stroke-width="0.5" stroke-linecap="butt"/><path d="M51 99L61.4 99L61.4 113L51 113Z" fill="none" stroke="currentColor" stroke-width="0.5"/><path d="M59.6 94.4L67.8 109.9M58.7 94.9L66.9 110.4M57.8 95.4L66 110.9M56.9 95.8L65.2 111.3M56 96.3L64.3 111.8M55.2 96.8L63.4 112.3M54.3 97.3L62.5 112.7M53.4 97.7L61.6 113.2M52.5 98.2L60.7 113.7M51.6 98.7L59.9 114.1M50.7 99.1L59 114.6M49.9 99.6L58.1 115.1M49 100.1L57.2 115.5M48.1 100.5L56.3 116M47.2 101L55.4 116.5M46.3 101.5L54.6 117M45.4 102L53.7 117.4" fill="none" stroke="currentColor" stroke-width="0.3" stroke-linecap="butt" clip-path="url(#highbury-k11)"/><path d="M55.4 111L55.8 108L57 107.2L56.8 105.8L57.6 105L58.9 105L59.5 105.8L59.2 107.2L60.4 108L60.8 111Z" fill="currentColor" /><path d="M51 122L61.4 122L61.4 140L51 140Z" fill="none" stroke="currentColor" stroke-width="0.5"/><path d="M59.6 117.4L69.5 136M58.7 117.9L68.6 136.5M57.8 118.4L67.7 137M56.9 118.8L66.8 137.4M56 119.3L65.9 137.9M55.2 119.8L65 138.4M54.3 120.3L64.2 138.8M53.4 120.7L63.3 139.3M52.5 121.2L62.4 139.8M51.6 121.7L61.5 140.3M50.7 122.1L60.6 140.7M49.9 122.6L59.7 141.2M49 123.1L58.9 141.7M48.1 123.5L58 142.1M47.2 124L57.1 142.6M46.3 124.5L56.2 143.1M45.4 125L55.3 143.5M44.6 125.4L54.5 144M43.7 125.9L53.6 144.5" fill="none" stroke="currentColor" stroke-width="0.3" stroke-linecap="butt" clip-path="url(#highbury-k12)"/><path d="M51.6 138L52 135L53.2 134.2L53 132.8L53.8 132L55.1 132L55.7 132.8L55.4 134.2L56.6 135L57 138Z" fill="currentColor" /><path d="M65.2 99L75.6 99L75.6 113L65.2 113Z" fill="none" stroke="currentColor" stroke-width="0.5"/><path d="M73.8 94.4L82 109.9M72.9 94.9L81.1 110.4M72 95.4L80.2 110.9M71.1 95.8L79.4 111.3M70.2 96.3L78.5 111.8M69.4 96.8L77.6 112.3M68.5 97.3L76.7 112.7M67.6 97.7L75.8 113.2M66.7 98.2L74.9 113.7M65.8 98.7L74.1 114.1M64.9 99.1L73.2 114.6M64.1 99.6L72.3 115.1M63.2 100.1L71.4 115.5M62.3 100.5L70.5 116M61.4 101L69.6 116.5M60.5 101.5L68.8 117M59.6 102L67.9 117.4" fill="none" stroke="currentColor" stroke-width="0.3" stroke-linecap="butt" clip-path="url(#highbury-k13)"/><path d="M65.2 122L75.6 122L75.6 140L65.2 140Z" fill="none" stroke="currentColor" stroke-width="0.5"/><path d="M73.8 117.4L83.7 136M72.9 117.9L82.8 136.5M72 118.4L81.9 137M71.1 118.8L81 137.4M70.2 119.3L80.1 137.9M69.4 119.8L79.2 138.4M68.5 120.3L78.4 138.8M67.6 120.7L77.5 139.3M66.7 121.2L76.6 139.8M65.8 121.7L75.7 140.3M64.9 122.1L74.8 140.7M64.1 122.6L73.9 141.2M63.2 123.1L73.1 141.7M62.3 123.5L72.2 142.1M61.4 124L71.3 142.6M60.5 124.5L70.4 143.1M59.6 125L69.5 143.5M58.8 125.4L68.7 144M57.9 125.9L67.8 144.5" fill="none" stroke="currentColor" stroke-width="0.3" stroke-linecap="butt" clip-path="url(#highbury-k14)"/><path d="M79.4 99L89.8 99L89.8 113L79.4 113Z" fill="none" stroke="currentColor" stroke-width="0.5"/><path d="M88 94.4L96.2 109.9M87.1 94.9L95.3 110.4M86.2 95.4L94.4 110.9M85.3 95.8L93.6 111.3M84.4 96.3L92.7 111.8M83.6 96.8L91.8 112.3M82.7 97.3L90.9 112.7M81.8 97.7L90 113.2M80.9 98.2L89.1 113.7M80 98.7L88.3 114.1M79.1 99.1L87.4 114.6M78.3 99.6L86.5 115.1M77.4 100.1L85.6 115.5M76.5 100.5L84.7 116M75.6 101L83.8 116.5M74.7 101.5L83 117M73.8 102L82.1 117.4" fill="none" stroke="currentColor" stroke-width="0.3" stroke-linecap="butt" clip-path="url(#highbury-k15)"/><path d="M79.4 122L89.8 122L89.8 140L79.4 140Z" fill="none" stroke="currentColor" stroke-width="0.5"/><path d="M88 117.4L97.9 136M87.1 117.9L97 136.5M86.2 118.4L96.1 137M85.3 118.8L95.2 137.4M84.4 119.3L94.3 137.9M83.6 119.8L93.4 138.4M82.7 120.3L92.6 138.8M81.8 120.7L91.7 139.3M80.9 121.2L90.8 139.8M80 121.7L89.9 140.3M79.1 122.1L89 140.7M78.3 122.6L88.1 141.2M77.4 123.1L87.3 141.7M76.5 123.5L86.4 142.1M75.6 124L85.5 142.6M74.7 124.5L84.6 143.1M73.8 125L83.7 143.5M73 125.4L82.9 144M72.1 125.9L82 144.5" fill="none" stroke="currentColor" stroke-width="0.3" stroke-linecap="butt" clip-path="url(#highbury-k16)"/><path d="M83.7 138L84.1 135L85.3 134.2L85.1 132.8L85.9 132L87.2 132L87.8 132.8L87.5 134.2L88.7 135L89.1 138Z" fill="currentColor" /><path d="M93.6 99L104 99L104 113L93.6 113Z" fill="none" stroke="currentColor" stroke-width="0.5"/><path d="M102.2 94.4L110.4 109.9M101.3 94.9L109.5 110.4M100.4 95.4L108.6 110.9M99.5 95.8L107.8 111.3M98.6 96.3L106.9 111.8M97.8 96.8L106 112.3M96.9 97.3L105.1 112.7M96 97.7L104.2 113.2M95.1 98.2L103.3 113.7M94.2 98.7L102.5 114.1M93.3 99.1L101.6 114.6M92.5 99.6L100.7 115.1M91.6 100.1L99.8 115.5M90.7 100.5L98.9 116M89.8 101L98 116.5M88.9 101.5L97.2 117M88 102L96.3 117.4" fill="none" stroke="currentColor" stroke-width="0.3" stroke-linecap="butt" clip-path="url(#highbury-k17)"/><path d="M93.6 122L104 122L104 140L93.6 140Z" fill="none" stroke="currentColor" stroke-width="0.5"/><path d="M102.2 117.4L112.1 136M101.3 117.9L111.2 136.5M100.4 118.4L110.3 137M99.5 118.8L109.4 137.4M98.6 119.3L108.5 137.9M97.8 119.8L107.6 138.4M96.9 120.3L106.8 138.8M96 120.7L105.9 139.3M95.1 121.2L105 139.8M94.2 121.7L104.1 140.3M93.3 122.1L103.2 140.7M92.5 122.6L102.3 141.2M91.6 123.1L101.5 141.7M90.7 123.5L100.6 142.1M89.8 124L99.7 142.6M88.9 124.5L98.8 143.1M88 125L97.9 143.5M87.2 125.4L97.1 144M86.3 125.9L96.2 144.5" fill="none" stroke="currentColor" stroke-width="0.3" stroke-linecap="butt" clip-path="url(#highbury-k18)"/><path d="M96.5 138L96.9 135L98.1 134.2L97.9 132.8L98.7 132L100 132L100.6 132.8L100.3 134.2L101.5 135L101.9 138Z" fill="currentColor" /><path d="M107.8 99L118.2 99L118.2 113L107.8 113Z" fill="none" stroke="currentColor" stroke-width="0.5"/><path d="M116.4 94.4L124.6 109.9M115.5 94.9L123.7 110.4M114.6 95.4L122.8 110.9M113.7 95.8L122 111.3M112.8 96.3L121.1 111.8M112 96.8L120.2 112.3M111.1 97.3L119.3 112.7M110.2 97.7L118.4 113.2M109.3 98.2L117.5 113.7M108.4 98.7L116.7 114.1M107.5 99.1L115.8 114.6M106.7 99.6L114.9 115.1M105.8 100.1L114 115.5M104.9 100.5L113.1 116M104 101L112.2 116.5M103.1 101.5L111.4 117M102.2 102L110.5 117.4" fill="none" stroke="currentColor" stroke-width="0.3" stroke-linecap="butt" clip-path="url(#highbury-k19)"/><path d="M112.3 111L112.7 108L113.9 107.2L113.7 105.8L114.5 105L115.8 105L116.4 105.8L116.1 107.2L117.3 108L117.7 111Z" fill="currentColor" /><path d="M107.8 122L118.2 122L118.2 140L107.8 140Z" fill="none" stroke="currentColor" stroke-width="0.5"/><path d="M116.4 117.4L126.3 136M115.5 117.9L125.4 136.5M114.6 118.4L124.5 137M113.7 118.8L123.6 137.4M112.8 119.3L122.7 137.9M112 119.8L121.8 138.4M111.1 120.3L121 138.8M110.2 120.7L120.1 139.3M109.3 121.2L119.2 139.8M108.4 121.7L118.3 140.3M107.5 122.1L117.4 140.7M106.7 122.6L116.5 141.2M105.8 123.1L115.7 141.7M104.9 123.5L114.8 142.1M104 124L113.9 142.6M103.1 124.5L113 143.1M102.2 125L112.1 143.5M101.4 125.4L111.3 144M100.5 125.9L110.4 144.5" fill="none" stroke="currentColor" stroke-width="0.3" stroke-linecap="butt" clip-path="url(#highbury-k20)"/><path d="M122 99L132.4 99L132.4 113L122 113Z" fill="none" stroke="currentColor" stroke-width="0.5"/><path d="M130.6 94.4L138.8 109.9M129.7 94.9L137.9 110.4M128.8 95.4L137 110.9M127.9 95.8L136.2 111.3M127 96.3L135.3 111.8M126.2 96.8L134.4 112.3M125.3 97.3L133.5 112.7M124.4 97.7L132.6 113.2M123.5 98.2L131.7 113.7M122.6 98.7L130.9 114.1M121.7 99.1L130 114.6M120.9 99.6L129.1 115.1M120 100.1L128.2 115.5M119.1 100.5L127.3 116M118.2 101L126.4 116.5M117.3 101.5L125.6 117M116.4 102L124.7 117.4" fill="none" stroke="currentColor" stroke-width="0.3" stroke-linecap="butt" clip-path="url(#highbury-k21)"/><path d="M124.5 111L124.9 108L126.1 107.2L125.9 105.8L126.7 105L128 105L128.6 105.8L128.3 107.2L129.5 108L129.9 111Z" fill="currentColor" /><path d="M122 122L132.4 122L132.4 140L122 140Z" fill="none" stroke="currentColor" stroke-width="0.5"/><path d="M130.6 117.4L140.5 136M129.7 117.9L139.6 136.5M128.8 118.4L138.7 137M127.9 118.8L137.8 137.4M127 119.3L136.9 137.9M126.2 119.8L136 138.4M125.3 120.3L135.2 138.8M124.4 120.7L134.3 139.3M123.5 121.2L133.4 139.8M122.6 121.7L132.5 140.3M121.7 122.1L131.6 140.7M120.9 122.6L130.7 141.2M120 123.1L129.9 141.7M119.1 123.5L129 142.1M118.2 124L128.1 142.6M117.3 124.5L127.2 143.1M116.4 125L126.3 143.5M115.6 125.4L125.5 144M114.7 125.9L124.6 144.5" fill="none" stroke="currentColor" stroke-width="0.3" stroke-linecap="butt" clip-path="url(#highbury-k22)"/><path d="M136.2 99L146.6 99L146.6 113L136.2 113Z" fill="none" stroke="currentColor" stroke-width="0.5"/><path d="M144.8 94.4L153 109.9M143.9 94.9L152.1 110.4M143 95.4L151.2 110.9M142.1 95.8L150.4 111.3M141.2 96.3L149.5 111.8M140.4 96.8L148.6 112.3M139.5 97.3L147.7 112.7M138.6 97.7L146.8 113.2M137.7 98.2L145.9 113.7M136.8 98.7L145.1 114.1M135.9 99.1L144.2 114.6M135.1 99.6L143.3 115.1M134.2 100.1L142.4 115.5M133.3 100.5L141.5 116M132.4 101L140.6 116.5M131.5 101.5L139.8 117M130.6 102L138.9 117.4" fill="none" stroke="currentColor" stroke-width="0.3" stroke-linecap="butt" clip-path="url(#highbury-k23)"/><path d="M138.8 111L139.2 108L140.4 107.2L140.2 105.8L141 105L142.3 105L142.9 105.8L142.6 107.2L143.8 108L144.2 111Z" fill="currentColor" /><path d="M136.2 122L146.6 122L146.6 140L136.2 140Z" fill="none" stroke="currentColor" stroke-width="0.5"/><path d="M144.8 117.4L154.7 136M143.9 117.9L153.8 136.5M143 118.4L152.9 137M142.1 118.8L152 137.4M141.2 119.3L151.1 137.9M140.4 119.8L150.2 138.4M139.5 120.3L149.4 138.8M138.6 120.7L148.5 139.3M137.7 121.2L147.6 139.8M136.8 121.7L146.7 140.3M135.9 122.1L145.8 140.7M135.1 122.6L144.9 141.2M134.2 123.1L144.1 141.7M133.3 123.5L143.2 142.1M132.4 124L142.3 142.6M131.5 124.5L141.4 143.1M130.6 125L140.5 143.5M129.8 125.4L139.7 144M128.9 125.9L138.8 144.5" fill="none" stroke="currentColor" stroke-width="0.3" stroke-linecap="butt" clip-path="url(#highbury-k24)"/><path d="M139.8 138L140.2 135L141.4 134.2L141.2 132.8L142 132L143.3 132L143.9 132.8L143.6 134.2L144.8 135L145.2 138Z" fill="currentColor" /><path d="M90 92L106 92L106 95.4L90 95.4Z" fill="none" stroke="currentColor" stroke-width="0.5"/><path d="M109 92L117 92L117 95.4L109 95.4Z" fill="none" stroke="currentColor" stroke-width="0.5"/><path d="M48 120L56 100" fill="none" stroke="currentColor" stroke-width="0.6"/><path d="M45 140L151 140L151 146L45 146Z" fill="none" stroke="currentColor" stroke-width="0.8"/><path d="M45 140L151 140M45 141L151 141M45 142L151 142M45 143L151 143M45 144L151 144M45 145L151 145M45 146L151 146" fill="none" stroke="currentColor" stroke-width="0.3" stroke-linecap="butt" clip-path="url(#highbury-k25)"/><path d="M55 145L77 145L77 149L55 149Z" fill="none" stroke="currentColor" stroke-width="0.6"/><path d="M55.8 150A4.2 4.2 0 1 0 64.2 150A4.2 4.2 0 1 0 55.8 150Z" fill="none" stroke="currentColor" stroke-width="0.9"/><path d="M58.6 150A1.4 1.4 0 1 0 61.4 150A1.4 1.4 0 1 0 58.6 150Z" fill="currentColor" /><path d="M67.8 150A4.2 4.2 0 1 0 76.2 150A4.2 4.2 0 1 0 67.8 150Z" fill="none" stroke="currentColor" stroke-width="0.9"/><path d="M70.6 150A1.4 1.4 0 1 0 73.4 150A1.4 1.4 0 1 0 70.6 150Z" fill="currentColor" /><path d="M119 145L141 145L141 149L119 149Z" fill="none" stroke="currentColor" stroke-width="0.6"/><path d="M119.8 150A4.2 4.2 0 1 0 128.2 150A4.2 4.2 0 1 0 119.8 150Z" fill="none" stroke="currentColor" stroke-width="0.9"/><path d="M122.6 150A1.4 1.4 0 1 0 125.4 150A1.4 1.4 0 1 0 122.6 150Z" fill="currentColor" /><path d="M131.8 150A4.2 4.2 0 1 0 140.2 150A4.2 4.2 0 1 0 131.8 150Z" fill="none" stroke="currentColor" stroke-width="0.9"/><path d="M134.6 150A1.4 1.4 0 1 0 137.4 150A1.4 1.4 0 1 0 134.6 150Z" fill="currentColor" /><path d="M2 162.4L198 162.4M2 164.2L198 164.2" fill="none" stroke="currentColor" stroke-width="0.8" stroke-linecap="butt"/><path d="M2 163.3L198 163.3" fill="none" stroke="currentColor" stroke-width="0.3" stroke-linecap="butt" stroke-dasharray="3 1.5"/><path d="M4 167L7.2 167M8.6 167L11.8 167M13.2 167L16.4 167M17.8 167L21 167M22.4 167L25.6 167M27 167L30.2 167M31.6 167L34.8 167M36.2 167L39.4 167M40.8 167L44 167M45.4 167L48.6 167M50 167L53.2 167M54.6 167L57.8 167M59.2 167L62.4 167M63.8 167L67 167M68.4 167L71.6 167M73 167L76.2 167M77.6 167L80.8 167M82.2 167L85.4 167M86.8 167L90 167M91.4 167L94.6 167M96 167L99.2 167M100.6 167L103.8 167M105.2 167L108.4 167M109.8 167L113 167M114.4 167L117.6 167M119 167L122.2 167M123.6 167L126.8 167M128.2 167L131.4 167M132.8 167L136 167M137.4 167L140.6 167M142 167L145.2 167M146.6 167L149.8 167M151.2 167L154.4 167M155.8 167L159 167M160.4 167L163.6 167M165 167L168.2 167M169.6 167L172.8 167M174.2 167L177.4 167M178.8 167L182 167M183.4 167L186.6 167M188 167L191.2 167M192.6 167L195.8 167M197.2 167L200.4 167M4 169.2L7.2 169.2M8.6 169.2L11.8 169.2M13.2 169.2L16.4 169.2M17.8 169.2L21 169.2M22.4 169.2L25.6 169.2M27 169.2L30.2 169.2M31.6 169.2L34.8 169.2M36.2 169.2L39.4 169.2M40.8 169.2L44 169.2M45.4 169.2L48.6 169.2M50 169.2L53.2 169.2M54.6 169.2L57.8 169.2M59.2 169.2L62.4 169.2M63.8 169.2L67 169.2M68.4 169.2L71.6 169.2M73 169.2L76.2 169.2M77.6 169.2L80.8 169.2M82.2 169.2L85.4 169.2M86.8 169.2L90 169.2M91.4 169.2L94.6 169.2M96 169.2L99.2 169.2M100.6 169.2L103.8 169.2M105.2 169.2L108.4 169.2M109.8 169.2L113 169.2M114.4 169.2L117.6 169.2M119 169.2L122.2 169.2M123.6 169.2L126.8 169.2M128.2 169.2L131.4 169.2M132.8 169.2L136 169.2M137.4 169.2L140.6 169.2M142 169.2L145.2 169.2M146.6 169.2L149.8 169.2M151.2 169.2L154.4 169.2M155.8 169.2L159 169.2M160.4 169.2L163.6 169.2M165 169.2L168.2 169.2M169.6 169.2L172.8 169.2M174.2 169.2L177.4 169.2M178.8 169.2L182 169.2M183.4 169.2L186.6 169.2M188 169.2L191.2 169.2M192.6 169.2L195.8 169.2M197.2 169.2L200.4 169.2M4 171.4L7.2 171.4M8.6 171.4L11.8 171.4M13.2 171.4L16.4 171.4M17.8 171.4L21 171.4M22.4 171.4L25.6 171.4M27 171.4L30.2 171.4M31.6 171.4L34.8 171.4M36.2 171.4L39.4 171.4M40.8 171.4L44 171.4M45.4 171.4L48.6 171.4M50 171.4L53.2 171.4M54.6 171.4L57.8 171.4M59.2 171.4L62.4 171.4M63.8 171.4L67 171.4M68.4 171.4L71.6 171.4M73 171.4L76.2 171.4M77.6 171.4L80.8 171.4M82.2 171.4L85.4 171.4M86.8 171.4L90 171.4M91.4 171.4L94.6 171.4M96 171.4L99.2 171.4M100.6 171.4L103.8 171.4M105.2 171.4L108.4 171.4M109.8 171.4L113 171.4M114.4 171.4L117.6 171.4M119 171.4L122.2 171.4M123.6 171.4L126.8 171.4M128.2 171.4L131.4 171.4M132.8 171.4L136 171.4M137.4 171.4L140.6 171.4M142 171.4L145.2 171.4M146.6 171.4L149.8 171.4M151.2 171.4L154.4 171.4M155.8 171.4L159 171.4M160.4 171.4L163.6 171.4M165 171.4L168.2 171.4M169.6 171.4L172.8 171.4M174.2 171.4L177.4 171.4M178.8 171.4L182 171.4M183.4 171.4L186.6 171.4M188 171.4L191.2 171.4M192.6 171.4L195.8 171.4M197.2 171.4L200.4 171.4M4 173.6L7.2 173.6M8.6 173.6L11.8 173.6M13.2 173.6L16.4 173.6M17.8 173.6L21 173.6M22.4 173.6L25.6 173.6M27 173.6L30.2 173.6M31.6 173.6L34.8 173.6M36.2 173.6L39.4 173.6M40.8 173.6L44 173.6M45.4 173.6L48.6 173.6M50 173.6L53.2 173.6M54.6 173.6L57.8 173.6M59.2 173.6L62.4 173.6M63.8 173.6L67 173.6M68.4 173.6L71.6 173.6M73 173.6L76.2 173.6M77.6 173.6L80.8 173.6M82.2 173.6L85.4 173.6M86.8 173.6L90 173.6M91.4 173.6L94.6 173.6M96 173.6L99.2 173.6M100.6 173.6L103.8 173.6M105.2 173.6L108.4 173.6M109.8 173.6L113 173.6M114.4 173.6L117.6 173.6M119 173.6L122.2 173.6M123.6 173.6L126.8 173.6M128.2 173.6L131.4 173.6M132.8 173.6L136 173.6M137.4 173.6L140.6 173.6M142 173.6L145.2 173.6M146.6 173.6L149.8 173.6M151.2 173.6L154.4 173.6M155.8 173.6L159 173.6M160.4 173.6L163.6 173.6M165 173.6L168.2 173.6M169.6 173.6L172.8 173.6M174.2 173.6L177.4 173.6M178.8 173.6L182 173.6M183.4 173.6L186.6 173.6M188 173.6L191.2 173.6M192.6 173.6L195.8 173.6M197.2 173.6L200.4 173.6M4 175.8L7.2 175.8M8.6 175.8L11.8 175.8M13.2 175.8L16.4 175.8M17.8 175.8L21 175.8M22.4 175.8L25.6 175.8M27 175.8L30.2 175.8M31.6 175.8L34.8 175.8M36.2 175.8L39.4 175.8M40.8 175.8L44 175.8M45.4 175.8L48.6 175.8M50 175.8L53.2 175.8M54.6 175.8L57.8 175.8M59.2 175.8L62.4 175.8M63.8 175.8L67 175.8M68.4 175.8L71.6 175.8M73 175.8L76.2 175.8M77.6 175.8L80.8 175.8M82.2 175.8L85.4 175.8M86.8 175.8L90 175.8M91.4 175.8L94.6 175.8M96 175.8L99.2 175.8M100.6 175.8L103.8 175.8M105.2 175.8L108.4 175.8M109.8 175.8L113 175.8M114.4 175.8L117.6 175.8M119 175.8L122.2 175.8M123.6 175.8L126.8 175.8M128.2 175.8L131.4 175.8M132.8 175.8L136 175.8M137.4 175.8L140.6 175.8M142 175.8L145.2 175.8M146.6 175.8L149.8 175.8M151.2 175.8L154.4 175.8M155.8 175.8L159 175.8M160.4 175.8L163.6 175.8M165 175.8L168.2 175.8M169.6 175.8L172.8 175.8M174.2 175.8L177.4 175.8M178.8 175.8L182 175.8M183.4 175.8L186.6 175.8M188 175.8L191.2 175.8M192.6 175.8L195.8 175.8M197.2 175.8L200.4 175.8M4 178L7.2 178M8.6 178L11.8 178M13.2 178L16.4 178M17.8 178L21 178M22.4 178L25.6 178M27 178L30.2 178M31.6 178L34.8 178M36.2 178L39.4 178M40.8 178L44 178M45.4 178L48.6 178M50 178L53.2 178M54.6 178L57.8 178M59.2 178L62.4 178M63.8 178L67 178M68.4 178L71.6 178M73 178L76.2 178M77.6 178L80.8 178M82.2 178L85.4 178M86.8 178L90 178M91.4 178L94.6 178M96 178L99.2 178M100.6 178L103.8 178M105.2 178L108.4 178M109.8 178L113 178M114.4 178L117.6 178M119 178L122.2 178M123.6 178L126.8 178M128.2 178L131.4 178M132.8 178L136 178M137.4 178L140.6 178M142 178L145.2 178M146.6 178L149.8 178M151.2 178L154.4 178M155.8 178L159 178M160.4 178L163.6 178M165 178L168.2 178M169.6 178L172.8 178M174.2 178L177.4 178M178.8 178L182 178M183.4 178L186.6 178M188 178L191.2 178M192.6 178L195.8 178M197.2 178L200.4 178" fill="none" stroke="currentColor" stroke-width="0.3" stroke-linecap="butt"/><path d="M2 160.4L198 160.4" fill="none" stroke="currentColor" stroke-width="0.6" stroke-linecap="butt"/><path d="M184 160L184 122" fill="none" stroke="currentColor" stroke-width="0.8" stroke-linecap="butt"/><path d="M181.5 122L186.5 122L186 116L184 114L182 116Z" fill="none" stroke="currentColor" stroke-width="0.6"/><path d="M167.3 160.4L166.7 156L168.3 155.7L168.5 152.1L168 150.8L166.9 150.5L166.2 150.2L166.1 149.6L167.3 149.4L167.3 149L166.7 148.9L166.5 148.2L166 147.6L165.2 147.5L164.5 148L164.3 148.8L163.5 148.9L163.5 149.3L164.5 149.5L164.5 150.4L164.9 150.8L164 151L163.4 153.2L163.6 155.7L164.4 156L164.6 160.4L165.5 160.4L165.7 156.5L166.3 156.5L166.4 160.4Z" fill="currentColor" /></svg>