<svg xmlns="http://www.w3.org/2000/svg" viewBox="0 0 300 520" role="img" aria-label="The Blank Card" xmlns:c2pa="http://c2pa.org/manifest"><metadata><c2pa:manifest>AAAWgmp1bWIAAAAeanVtZGMycGEAEQAQgAAAqgA4m3EDYzJwYQAAABZcanVtYgAAAEdqdW1kYzJtYQARABCAAACqADibcQN1cm46YzJwYToyMDY0ZWQyZS1lMTNmLTRkOWItYjY2MC1iNjA3MjE2N2EyN2UAAAADl2p1bWIAAAApanVtZGMyYXMAEQAQgAAAqgA4m3EDYzJwYS5hc3NlcnRpb25zAAAAALxqdW1iAAAARGp1bWRjYm9yABEAEIAAAKoAOJtxE2MycGEuaW5ncmVkaWVudC52MwAAAAAYYzJzaH2xUOfgCwQKhixYCckVCwEAAABwY2JvcqNpZGM6Zm9ybWF0bWltYWdlL3N2Zyt4bWxqaW5zdGFuY2VJRHgseG1wOmlpZDo2ZDk1MWRhMC1hYTFmLTQ3ZTQtYTQ5OS00NmQ3ZGY3YzNhYzlscmVsYXRpb25zaGlwaHBhcmVudE9mAAAB4mp1bWIAAABBanVtZGNib3IAEQAQgAAAqgA4m3ETYzJwYS5hY3Rpb25zLnYyAAAAABhjMnNosIwb5DsIH3XGIB2OgI1AkAAAAZljYm9yomdhY3Rpb25zgqJmYWN0aW9ua2MycGEub3BlbmVkanBhcmFtZXRlcnOha2luZ3JlZGllbnRzgaJjdXJseC1zZWxmI2p1bWJmPWMycGEuYXNzZXJ0aW9ucy9jMnBhLmluZ3JlZGllbnQudjNkaGFzaFggNsK4GsUVCRXq7zZMObT3eXO6TxMEgopXGQDHJyTSvsKkZmFjdGlvbngdY29tLmFudGhyb3BpYy5jbGF1ZGUucHJvdmlkZWRqcGFyYW1ldGVyc6F4H2NvbS5hbnRocm9waWMub3JpZ2luLWNvbmZpZGVuY2VndW5rbm93bmtkZXNjcmlwdGlvbnhmQ2xhdWRlIHByb3ZpZGVkIHRoaXMgZmlsZSBhdCB0aGUgcmVxdWVzdCBvZiBhIHVzZXIgYW5kIG1heSBoYXZlIGNyZWF0ZWQgb3IgbW9kaWZpZWQgdGhlIGZpbGUgY29udGVudHMubXNvZnR3YXJlQWdlbnShZG5hbWVmQ2xhdWRlcmFsbEFjdGlvbnNJbmNsdWRlZPUAAADIanVtYgAAAEBqdW1kY2JvcgARABCAAACqADibcRNjMnBhLmhhc2guZGF0YQAAAAAYYzJzaMxZmww1vgb2EHPtUGYgXXYAAACAY2JvcqVjYWxnZnNoYTI1NmNwYWRNAAAAAAAAAAAAAAAAAGRoYXNoWCDomR5BkuakRVHz3FtzEzXq+NEhUKiAxCE6OCRoYAATpGRuYW1lbmp1bWJmIG1hbmlmZXN0amV4Y2x1c2lvbnOBomVzdGFydBikZmxlbmd0aBkeBAAAAj5qdW1iAAAAJ2p1bWRjMmNsABEAEIAAAKoAOJtxA2MycGEuY2xhaW0udjIAAAACD2Nib3KlY2FsZ2ZzaGEyNTZpc2lnbmF0dXJleE1zZWxmI2p1bWJmPS9jMnBhL3VybjpjMnBhOjIwNjRlZDJlLWUxM2YtNGQ5Yi1iNjYwLWI2MDcyMTY3YTI3ZS9jMnBhLnNpZ25hdHVyZWppbnN0YW5jZUlEeCx4bXA6aWlkOjc4ZTA3YTMzLWViMGMtNDMyNi05NTg5LWFiYjc2OGJhNmRlZHJjcmVhdGVkX2Fzc2VydGlvbnODomN1cmx4LXNlbGYjanVtYmY9YzJwYS5hc3NlcnRpb25zL2MycGEuaW5ncmVkaWVudC52M2RoYXNoWCA2wrgaxRUJFervNkw5tPd5c7pPEwSCilcZAMcnJNK+wqJjdXJseCpzZWxmI2p1bWJmPWMycGEuYXNzZXJ0aW9ucy9jMnBhLmFjdGlvbnMudjJkaGFzaFggO+GlFpl0ID7FrAwdOhwuqS/DxVygK5BUCLdJZoH/ExOiY3VybHgpc2VsZiNqdW1iZj1jMnBhLmFzc2VydGlvbnMvYzJwYS5oYXNoLmRhdGFkaGFzaFggTfSqwYntkNjRiPJM1+lOozS6Iksi9dPg9swT5RG/2qZ0Y2xhaW1fZ2VuZXJhdG9yX2luZm+jZG5hbWVvQW50aHJvcGljIEZpbGVzZ3ZlcnNpb25lMS4wLjBrc3BlY1ZlcnNpb25lMi40LjAAABA4anVtYgAAAChqdW1kYzJjcwARABCAAACqADibcQNjMnBhLnNpZ25hdHVyZQAAABAIY2JvctKEWQISogEmGCFZAgowggIGMIIBjaADAgECAhRA5aAK7sI50L64g/oGQgU9Z1UTADAKBggqhkjOPQQDAzBJMRcwFQYDVQQKEw5BbnRocm9waWMsIFBCQzEuMCwGA1UEAxMlQW50aHJvcGljIENvbnRlbnQgQ3JlZGVudGlhbHMgUm9vdCBDQTAeFw0yNjA4MDcxODQzNTZaFw0yODA4MDYxOTQzNTZaMEQxFzAVBgNVBAoTDkFudGhyb3BpYywgUEJDMSkwJwYDVQQDEyBBbnRocm9waWMgQ2xhdWRlIENvbnRlbnQgU2lnbmluZzBZMBMGByqGSM49AgEGCCqGSM49AwEHA0IABJh6CmvLUBgFFNU0vUKlOVtE6djd17L5SuwX0LemFisBM3dkd/3cyjxFA3Qo5S46fX0/ihY0VZ7mfb9KF703t5OjWDBWMA4GA1UdDwEB/wQEAwIHgDAVBgNVHSUEDjAMBgorBgEEAYPoXgIBMAwGA1UdEwEB/wQCMAAwHwYDVR0jBBgwFoAUzlHiBIFOZFsj+OPEz5o+nMHXXMIwCgYIKoZIzj0EAwMDZwAwZAIwMXMdFJ4BetLLVY7ORuE9noqbbAZOZn/aArXyTwFAZfKrPzxF2vPoJNf1+UCdg1XGAjBwX1zd9WGqYkqmL5SFqw1QySjr1zJfpJM9+1rdDwSPLMOPOjKuiXjoU/pUUeG9RwmhY3BhZFkNngAAAAAAAAAAAAAAAAAAAAAAAAAAAAAAAAAAAAAAAAAAAAAAAAAAAAAAAAAAAAAAAAAAAAAAAAAAAAAAAAAAAAAAAAAAAAAAAAAAAAAAAAAAAAAAAAAAAAAAAAAAAAAAAAAAAAAAAAAAAAAAAAAAAAAAAAAAAAAAAAAAAAAAAAAAAAAAAAAAAAAAAAAAAAAAAAAAAAAAAAAAAAAAAAAAAAAAAAAAAAAAAAAAAAAAAAAAAAAAAAAAAAAAAAAAAAAAAAAAAAAAAAAAAAAAAAAAAAAAAAAAAAAAAAAAAAAAAAAAAAAAAAAAAAAAAAAAAAAAAAAAAAAAAAAAAAAAAAAAAAAAAAAAAAAAAAAAAAAAAAAAAAAAAAAAAAAAAAAAAAAAAAAAAAAAAAAAAAAAAAAAAAAAAAAAAAAAAAAAAAAAAAAAAAAAAAAAAAAAAAAAAAAAAAAAAAAAAAAAAAAAAAAAAAAAAAAAAAAAAAAAAAAAAAAAAAAAAAAAAAAAAAAAAAAAAAAAAAAAAAAAAAAAAAAAAAAAAAAAAAAAAAAAAAAAAAAAAAAAAAAAAAAAAAAAAAAAAAAAAAAAAAAAAAAAAAAAAAAAAAAAAAAAAAAAAAAAAAAAAAAAAAAAAAAAAAAAAAAAAAAAAAAAAAAAAAAAAAAAAAAAAAAAAAAAAAAAAAAAAAAAAAAAAAAAAAAAAAAAAAAAAAAAAAAAAAAAAAAAAAAAAAAAAAAAAAAAAAAAAAAAAAAAAAAAAAAAAAAAAAAAAAAAAAAAAAAAAAAAAAAAAAAAAAAAAAAAAAAAAAAAAAAAAAAAAAAAAAAAAAAAAAAAAAAAAAAAAAAAAAAAAAAAAAAAAAAAAAAAAAAAAAAAAAAAAAAAAAAAAAAAAAAAAAAAAAAAAAAAAAAAAAAAAAAAAAAAAAAAAAAAAAAAAAAAAAAAAAAAAAAAAAAAAAAAAAAAAAAAAAAAAAAAAAAAAAAAAAAAAAAAAAAAAAAAAAAAAAAAAAAAAAAAAAAAAAAAAAAAAAAAAAAAAAAAAAAAAAAAAAAAAAAAAAAAAAAAAAAAAAAAAAAAAAAAAAAAAAAAAAAAAAAAAAAAAAAAAAAAAAAAAAAAAAAAAAAAAAAAAAAAAAAAAAAAAAAAAAAAAAAAAAAAAAAAAAAAAAAAAAAAAAAAAAAAAAAAAAAAAAAAAAAAAAAAAAAAAAAAAAAAAAAAAAAAAAAAAAAAAAAAAAAAAAAAAAAAAAAAAAAAAAAAAAAAAAAAAAAAAAAAAAAAAAAAAAAAAAAAAAAAAAAAAAAAAAAAAAAAAAAAAAAAAAAAAAAAAAAAAAAAAAAAAAAAAAAAAAAAAAAAAAAAAAAAAAAAAAAAAAAAAAAAAAAAAAAAAAAAAAAAAAAAAAAAAAAAAAAAAAAAAAAAAAAAAAAAAAAAAAAAAAAAAAAAAAAAAAAAAAAAAAAAAAAAAAAAAAAAAAAAAAAAAAAAAAAAAAAAAAAAAAAAAAAAAAAAAAAAAAAAAAAAAAAAAAAAAAAAAAAAAAAAAAAAAAAAAAAAAAAAAAAAAAAAAAAAAAAAAAAAAAAAAAAAAAAAAAAAAAAAAAAAAAAAAAAAAAAAAAAAAAAAAAAAAAAAAAAAAAAAAAAAAAAAAAAAAAAAAAAAAAAAAAAAAAAAAAAAAAAAAAAAAAAAAAAAAAAAAAAAAAAAAAAAAAAAAAAAAAAAAAAAAAAAAAAAAAAAAAAAAAAAAAAAAAAAAAAAAAAAAAAAAAAAAAAAAAAAAAAAAAAAAAAAAAAAAAAAAAAAAAAAAAAAAAAAAAAAAAAAAAAAAAAAAAAAAAAAAAAAAAAAAAAAAAAAAAAAAAAAAAAAAAAAAAAAAAAAAAAAAAAAAAAAAAAAAAAAAAAAAAAAAAAAAAAAAAAAAAAAAAAAAAAAAAAAAAAAAAAAAAAAAAAAAAAAAAAAAAAAAAAAAAAAAAAAAAAAAAAAAAAAAAAAAAAAAAAAAAAAAAAAAAAAAAAAAAAAAAAAAAAAAAAAAAAAAAAAAAAAAAAAAAAAAAAAAAAAAAAAAAAAAAAAAAAAAAAAAAAAAAAAAAAAAAAAAAAAAAAAAAAAAAAAAAAAAAAAAAAAAAAAAAAAAAAAAAAAAAAAAAAAAAAAAAAAAAAAAAAAAAAAAAAAAAAAAAAAAAAAAAAAAAAAAAAAAAAAAAAAAAAAAAAAAAAAAAAAAAAAAAAAAAAAAAAAAAAAAAAAAAAAAAAAAAAAAAAAAAAAAAAAAAAAAAAAAAAAAAAAAAAAAAAAAAAAAAAAAAAAAAAAAAAAAAAAAAAAAAAAAAAAAAAAAAAAAAAAAAAAAAAAAAAAAAAAAAAAAAAAAAAAAAAAAAAAAAAAAAAAAAAAAAAAAAAAAAAAAAAAAAAAAAAAAAAAAAAAAAAAAAAAAAAAAAAAAAAAAAAAAAAAAAAAAAAAAAAAAAAAAAAAAAAAAAAAAAAAAAAAAAAAAAAAAAAAAAAAAAAAAAAAAAAAAAAAAAAAAAAAAAAAAAAAAAAAAAAAAAAAAAAAAAAAAAAAAAAAAAAAAAAAAAAAAAAAAAAAAAAAAAAAAAAAAAAAAAAAAAAAAAAAAAAAAAAAAAAAAAAAAAAAAAAAAAAAAAAAAAAAAAAAAAAAAAAAAAAAAAAAAAAAAAAAAAAAAAAAAAAAAAAAAAAAAAAAAAAAAAAAAAAAAAAAAAAAAAAAAAAAAAAAAAAAAAAAAAAAAAAAAAAAAAAAAAAAAAAAAAAAAAAAAAAAAAAAAAAAAAAAAAAAAAAAAAAAAAAAAAAAAAAAAAAAAAAAAAAAAAAAAAAAAAAAAAAAAAAAAAAAAAAAAAAAAAAAAAAAAAAAAAAAAAAAAAAAAAAAAAAAAAAAAAAAAAAAAAAAAAAAAAAAAAAAAAAAAAAAAAAAAAAAAAAAAAAAAAAAAAAAAAAAAAAAAAAAAAAAAAAAAAAAAAAAAAAAAAAAAAAAAAAAAAAAAAAAAAAAAAAAAAAAAAAAAAAAAAAAAAAAAAAAAAAAAAAAAAAAAAAAAAAAAAAAAAAAAAAAAAAAAAAAAAAAAAAAAAAAAAAAAAAAAAAAAAAAAAAAAAAAAAAAAAAAAAAAAAAAAAAAAAAAAAAAAAAAAAAAAAAAAAAAAAAAAAAAAAAAAAAAAAAAAAAAAAAAAAAAAAAAAAAAAAAAAAAAAAAAAAAAAAAAAAAAAAAAAAAAAAAAAAAAAAAAAAAAAAAAAAAAAAAAAAAAAAAAAAAAAAAAAAAAAAAAAAAAAAAAAAAAAAAAAAAAAAAAAAAAAAAAAAAAAAAAAAAAAAAAAAAAAAAAAAAAAAAAAAAAAAAAAAAAAAAAAAAAAAAAAAAAAAAAAAAAAAAAAAAAAAAAAAAAAAAAAAAAAAAAAAAAAAAAAAAAAAAAAAAAAAAAAAAAAAAAAAAAAAAAAAAAAAAAAAAAAAAAAAAAAAAAAAAAAAAAAAAAAAAAAAAAAAAAAAAAAAAAAAAAAAAAAAAAAAAAAAAAAAAAAAAAAAAAAAAAAAAAAAAAAAAAAAAAAAAAAAAAAAAAAAAAAAAAAAAAAAAAAAAAAAAAAAAAAAAAAAAAAAAAAAAAAAAAAAAAAAAAAAAAAAAAAAAAAAAAAAAAAAAAAAAAAAAAAAAAAAAAAAAAAAAAAAAAAAAAAAAAAAAAAAAAAAAAAAAAAAAAAAAAAAAAAAAAAAAAAAAAAAAAAAAAAAAAAAAAAAAAAAAAAAAAAAAAAAAAAAAAAAAAAAAAAAAAAAAAAAAAAAAAAAAAAAAAAAAAAAAAAAAAAAAAAAAAAAAAAAAAAAAAAAAAAAAAAAAAAAAAAAAAAAAAAAAAAAAAAAAAAAAAAAAAAAAAAAAAAAAAAAAAAAAAAAAAAAAAAAAAAAAAAAAAAAAAAAAAAAAAAAAAAAAAAAAAAAAAAAAAAAAAAAAAAAAAAAAAAAAAAAAAAAAAAAAAAAAAAAAAAAAAAAAAAAAAAAAAAAAAAAAAAAAAAAAAAAAAAAAAAAAAAAAAAAAAAAAAAAAAAAAAAAAAAAAAAAAAAAAAAAAAAAAAAAAAAAAAAAAAAAAAAAAAAAAAAAAAAAAAAAAAAAAAAAAAAAAAAAAAAAAAAAAAAAAAAAAAAAAAAAAAAAAAAAAAAAAAAAAAAAAAAAAAAAAAAAAAAAAAAAAAAAAAAAAAAAAAAAAAAAAAAAAAAAAAAAAAAAAAAAAAAAAAAAAAAAAAAAAAAAAAAAAAAAAAAAAAAAAAAAAAAAAAAAAAAAAAAAAAAAAAAAAAAAAAAAAAAAAAAAAAAAAAAAAAAAAAAAAAAAAAAAAAAAAAAAAAAAAAAAAAAAAAAAAAAAAAAAAAAAAAAAAAAAAAAAAAAAAAAAAAAAAAAAAAAAAAAAAAAAAAAAAAAAAAAAAAAAAAAAAAAAAAAAAAAAAAAAAAAAAAAAAAAAAAAAAAAAAAAAAAAAAAAAAAAAAAAAAAAAAAAAAAAAAAAAAAAAAAAAAAAAAAAAAAAAAAAAAAAAAAAAAAAAAAAAAAAAAAAAAAAAAAAAAAAAAAAAAAAAAAAAAAAAAAAAAAAAAAAAAAAAAAAAAAAAAAAAAAAAAAAAAAAAAAAAAAAAAAAAAAAAAAAAAAAAAAAAAAAAAAAAAAAAAAAAAAAAAAAAAAAAAAAAAAAPZYQO6i4z240u/tgx6QSqaz0ND8l+6jMi2sM69Hs7eODboivw2ww0snU0WTVodNQLIiqMEbBMZsf2LDuLplWdRG8uI=</c2pa:manifest></metadata><title>The Blank Card</title><defs><pattern id="bandhatch" patternUnits="userSpaceOnUse" width="1.6" height="1.6" patternTransform="rotate(45)"><path d="M0 0.8H1.6" stroke="currentColor" stroke-width="0.32"/></pattern></defs><g fill="none" stroke="currentColor" stroke-linecap="round" stroke-linejoin="round"><g id="showthrough" opacity="0.13"><path d="M196.3 345.4l-19.1 11M198.6 341.3l-29 16.8M200.2 337.6l-37 21.4M201.3 334.2l-43.5 25.1M202.1 331l-49 28.3M202.8 327.8l-53.9 31.1M203.3 324.7l-58.2 33.6M203.7 321.7l-62 35.8M204 318.8l-65.5 37.8M204.3 315.9l-68.6 39.6M204.5 313l-71.5 41.3M204.7 310.1l-74.2 42.8M204.8 307.2l-76.7 44.3M205 304.4l-79.1 45.7M205 301.6l-81.3 46.9M205.1 298.8l-83.3 48.1M205.2 295.9l-85.3 49.2M205.2 293.1l-87 50.3M205.3 290.3l-88.7 51.2M205.3 287.5l-90.3 52.1M205.4 284.7l-91.8 53M205.4 281.9l-93.1 53.8M205.5 279.1l-94.4 54.5M205.5 276.3l-95.6 55.2M205.5 273.6l-96.8 55.9M205.5 270.8l-97.7 56.4M205.4 268.1l-98.7 57M205.3 265.4l-99.5 57.5M205.2 262.7l-100.3 57.9M205 260l-100.9 58.3M204.8 257.3l-101.6 58.6M204.6 254.7l-102.1 59M204.4 252l-102.6 59.2M204.2 249.4l-103.1 59.5M204 246.8l-103.5 59.7M203.7 244.1l-103.9 60M203.5 241.5l-104.2 60.2M203.3 238.8l-104.5 60.4M203.1 236.2l-104.8 60.5M202.9 233.5l-105.1 60.7M202.8 230.8l-105.4 60.9M202.7 228.1l-105.7 61M202.6 225.4l-106 61.2M202.5 222.6l-106.3 61.4M202.5 219.9l-106.6 61.5M202.6 217.1l-107 61.8M202.7 214.3l-107.3 61.9M202.9 211.4l-107.8 62.2M203.1 208.4l-108.2 62.5M203.5 205.5l-108.8 62.8M203.8 202.5l-109.3 63.1M204.3 199.5l-109.8 63.4M204.7 196.4l-110.4 63.7M205.2 193.4l-110.9 64M205.6 190.4l-111.4 64.3M206.1 187.3l-111.9 64.6M206.5 184.3l-112.3 64.8M206.9 181.3l-112.7 65M207.3 178.4l-112.9 65.2M207.5 175.4l-113 65.3M207.7 172.5l-113.1 65.3M207.8 169.7l-112.9 65.2M207.7 167l-112.6 65M207.5 164.3l-112 64.7M207.1 161.8l-111.2 64.2M206.6 159.4l-110.2 63.6M205.7 157.1l-108.8 62.8M204.5 155l-107.1 61.8M203.2 153l-105.1 60.7M201.6 151.2l-102.7 59.3M199.8 149.4l-100 57.7M197.4 148l-96.7 55.8M194.9 146.7l-93.1 53.8M191.9 145.7l-89 51.4M188.4 144.9l-84.3 48.7M184.6 144.3l-79 45.6M180.3 144l-73.1 42.2M175.5 144l-66.4 38.4M170.3 144.2l-58.9 34M164.8 144.7l-50.3 29.1M158.4 145.6l-39.9 23.1M149.6 147.9l-24.7 14.3" stroke="currentColor" stroke-width="0.5"/><path d="M205.5 156.5C198.9 142.75 181.35 143.4 166.5 144.5C151.65 145.6 136.6 151.5 124.5 162.5C112.4 173.5 106 185.8 100.5 204.5C95 223.2 93.4 242.5 94.5 264.5C95.6 286.5 99.35 308 106.5 324.5C113.65 341 121.4 348.45 133.5 354.5C145.6 360.55 160.4 360.25 172.5 357.5C184.6 354.75 193.45 353.8 199.5 339.5C205.55 325.2 204.95 301.5 205.5 279.5C206.05 257.5 202.5 242.05 202.5 219.5C202.5 196.95 212.1 170.25 205.5 156.5Z" stroke-width="1.6"/><path d="M199 203.2l-48 18l-51 18M200 205.8l-48 18l-51 18" stroke="currentColor" stroke-width="0.9"/><path d="M190.9 296.1l-27.7 -7.8l-10 -2.6l-7.4 -1.6l-7.7 -1.4l-8.3 -1.2l-29 -3.4M190.1 298.9l-27.7 -7.8l-9.9 -2.5l-7.3 -1.6l-7.6 -1.4l-8.2 -1.2l-29 -3.4" stroke="currentColor" stroke-width="0.9"/><path d="M165.1 147.2l-7.2 31.4l-2.2 10.5l-2 10.8l-3.3 21.8l-2.6 19.4l-1.8 15.9l-1.2 13.7l-0.5 9.4l-0.2 7.4l0.1 6.3l0.4 8.7l1.7 19.5l3.9 32.5M167.9 147.8l-7.2 31.4l-2.2 10.5l-2 10.8l-3.3 21.7l-2.6 19.3l-1.8 15.9l-1.2 13.6l-0.5 9.3l-0.2 7.3l0.1 8.4l0.4 8.6l1.5 17.2l3.9 32.6" stroke="currentColor" stroke-width="0.9"/></g><g stroke-linecap="round"><rect x="10" y="10" width="280" height="500" stroke="currentColor" stroke-width="1.1" fill="none"/><rect x="13.5" y="13.5" width="273" height="493" stroke="currentColor" stroke-width="0.4" fill="none"/><path d="M10.55 10.55H289.45V509.45H10.55ZM13.3 13.3V506.7H286.7V13.3Z" fill="url(#bandhatch)" stroke="none"/><path d="M13.5 466H286.5" stroke="currentColor" stroke-width="0.6"/><path d="M13.5 44H286.5" stroke="currentColor" stroke-width="0.6"/><rect x="11.9" y="11.9" width="3.2" height="3.2" fill="currentColor" stroke="none"/><rect x="284.9" y="11.9" width="3.2" height="3.2" fill="currentColor" stroke="none"/><rect x="11.9" y="504.9" width="3.2" height="3.2" fill="currentColor" stroke="none"/><rect x="284.9" y="504.9" width="3.2" height="3.2" fill="currentColor" stroke="none"/><path transform="translate(132.24 35)" fill="currentColor" stroke="none" d="M3.74 -11.4V-1.79Q3.74 -1.2 3.87 -0.9Q4.01 -0.61 4.4 -0.5Q4.79 -0.4 5.54 -0.4H8.23Q9.35 -0.4 9.93 -1.13Q10.52 -1.87 10.69 -3.07Q10.69 -3.09 10.69 -3.09Q10.71 -3.13 10.82 -3.13Q10.92 -3.11 10.92 -3.05Q10.86 -2.5 10.79 -1.73Q10.73 -0.97 10.73 -0.32Q10.73 0 10.42 0H0.76Q0.71 0 0.71 -0.13Q0.71 -0.25 0.76 -0.25Q1.55 -0.25 1.95 -0.36Q2.35 -0.46 2.49 -0.78Q2.62 -1.09 2.62 -1.7V-11.42Q2.62 -12.03 2.49 -12.34Q2.35 -12.64 1.95 -12.76Q1.55 -12.87 0.76 -12.87Q0.71 -12.87 0.71 -13Q0.71 -13.12 0.76 -13.12Q1.26 -13.12 1.88 -13.09Q2.5 -13.06 3.17 -13.06Q3.89 -13.06 4.5 -13.09Q5.12 -13.12 5.61 -13.12Q5.65 -13.12 5.65 -13Q5.65 -12.87 5.61 -12.87Q4.81 -12.87 4.41 -12.76Q4.01 -12.64 3.87 -12.33Q3.74 -12.01 3.74 -11.4Z M16.36 -1.7Q16.36 -1.09 16.49 -0.78Q16.61 -0.46 17.02 -0.36Q17.43 -0.25 18.23 -0.25Q18.27 -0.25 18.27 -0.13Q18.27 0 18.23 0Q17.73 0 17.12 -0.02Q16.51 -0.04 15.77 -0.04Q15.08 -0.04 14.46 -0.02Q13.84 0 13.34 0Q13.28 0 13.28 -0.13Q13.28 -0.25 13.34 -0.25Q14.14 -0.25 14.55 -0.36Q14.96 -0.46 15.09 -0.78Q15.23 -1.09 15.23 -1.7V-11.42Q15.23 -12.03 15.09 -12.34Q14.96 -12.64 14.55 -12.76Q14.14 -12.87 13.34 -12.87Q13.28 -12.87 13.28 -13Q13.28 -13.12 13.34 -13.12Q13.84 -13.12 14.46 -13.09Q15.08 -13.06 15.77 -13.06Q16.51 -13.06 17.13 -13.09Q17.75 -13.12 18.23 -13.12Q18.27 -13.12 18.27 -13Q18.27 -12.87 18.23 -12.87Q17.43 -12.87 17.03 -12.75Q16.64 -12.62 16.5 -12.31Q16.36 -11.99 16.36 -11.38Z M24.49 -1.7Q24.49 -1.09 24.62 -0.78Q24.74 -0.46 25.15 -0.36Q25.56 -0.25 26.36 -0.25Q26.4 -0.25 26.4 -0.13Q26.4 0 26.36 0Q25.86 0 25.25 -0.02Q24.64 -0.04 23.9 -0.04Q23.21 -0.04 22.59 -0.02Q21.97 0 21.47 0Q21.41 0 21.41 -0.13Q21.41 -0.25 21.47 -0.25Q22.27 -0.25 22.68 -0.36Q23.09 -0.46 23.22 -0.78Q23.36 -1.09 23.36 -1.7V-11.42Q23.36 -12.03 23.22 -12.34Q23.09 -12.64 22.68 -12.76Q22.27 -12.87 21.47 -12.87Q21.41 -12.87 21.41 -13Q21.41 -13.12 21.47 -13.12Q21.97 -13.12 22.59 -13.09Q23.21 -13.06 23.9 -13.06Q24.64 -13.06 25.26 -13.09Q25.88 -13.12 26.36 -13.12Q26.4 -13.12 26.4 -13Q26.4 -12.87 26.36 -12.87Q25.56 -12.87 25.16 -12.75Q24.77 -12.62 24.63 -12.31Q24.49 -11.99 24.49 -11.38Z M32.62 -1.7Q32.62 -1.09 32.75 -0.78Q32.87 -0.46 33.28 -0.36Q33.69 -0.25 34.49 -0.25Q34.53 -0.25 34.53 -0.13Q34.53 0 34.49 0Q33.99 0 33.38 -0.02Q32.77 -0.04 32.03 -0.04Q31.34 -0.04 30.72 -0.02Q30.1 0 29.6 0Q29.54 0 29.54 -0.13Q29.54 -0.25 29.6 -0.25Q30.4 -0.25 30.81 -0.36Q31.22 -0.46 31.35 -0.78Q31.49 -1.09 31.49 -1.7V-11.42Q31.49 -12.03 31.35 -12.34Q31.22 -12.64 30.81 -12.76Q30.4 -12.87 29.6 -12.87Q29.54 -12.87 29.54 -13Q29.54 -13.12 29.6 -13.12Q30.1 -13.12 30.72 -13.09Q31.34 -13.06 32.03 -13.06Q32.77 -13.06 33.39 -13.09Q34.01 -13.12 34.49 -13.12Q34.53 -13.12 34.53 -13Q34.53 -12.87 34.49 -12.87Q33.69 -12.87 33.29 -12.75Q32.9 -12.62 32.76 -12.31Q32.62 -11.99 32.62 -11.38Z"/><path transform="translate(98.98 491.5)" fill="currentColor" stroke="none" d="M2.36 0.04Q2.24 0.04 2.15 0.02Q2.06 -0.01 2.06 -0.09Q2.06 -0.17 2.15 -0.22Q2.24 -0.27 2.4 -0.3Q2.82 -0.38 3.04 -0.56Q3.25 -0.74 3.25 -1.13V-5.57Q3.25 -6.06 3.23 -6.31Q3.2 -6.56 3.16 -6.66Q3.11 -6.75 3.04 -6.78Q2.9 -6.81 2.73 -6.82Q2.56 -6.82 2.34 -6.82H1.9Q1.61 -6.82 1.33 -6.69Q1.04 -6.56 0.9 -6.33Q0.85 -6.26 0.77 -6.14Q0.68 -6.03 0.58 -5.94Q0.48 -5.86 0.38 -5.86Q0.32 -5.86 0.3 -5.9Q0.27 -5.95 0.27 -6.01Q0.27 -6.14 0.34 -6.26Q0.52 -6.62 0.59 -6.89Q0.67 -7.16 0.72 -7.53Q0.74 -7.71 0.81 -7.75Q0.87 -7.8 0.94 -7.8Q1 -7.8 1.09 -7.66Q1.19 -7.52 1.24 -7.43Q1.33 -7.32 1.58 -7.27Q1.83 -7.21 2.04 -7.21L6.08 -7.22Q6.43 -7.22 6.66 -7.27Q6.89 -7.31 7.03 -7.38Q7.19 -7.46 7.28 -7.55Q7.37 -7.65 7.52 -7.65Q7.56 -7.65 7.58 -7.58Q7.6 -7.5 7.6 -7.41Q7.6 -7.37 7.59 -7.28Q7.58 -7.19 7.57 -7.13Q7.53 -6.92 7.49 -6.8Q7.45 -6.68 7.43 -6.57Q7.41 -6.46 7.41 -6.29V-6.14Q7.41 -6 7.37 -5.88Q7.32 -5.76 7.24 -5.76Q7.15 -5.76 7.09 -5.87Q7.03 -5.99 6.98 -6.22Q6.91 -6.51 6.68 -6.66Q6.45 -6.82 5.92 -6.82H4.98Q4.76 -6.82 4.64 -6.75Q4.51 -6.68 4.47 -6.41Q4.44 -6.15 4.44 -5.57V-1.13Q4.44 -0.75 4.65 -0.57Q4.87 -0.39 5.3 -0.3Q5.45 -0.27 5.54 -0.22Q5.62 -0.18 5.62 -0.09Q5.62 -0.02 5.54 0.01Q5.47 0.04 5.33 0.04Q5.05 0.04 4.82 0.03Q4.58 0.01 4.36 0Q4.13 -0.01 3.89 -0.01Q3.62 -0.01 3.38 0Q3.15 0.01 2.9 0.03Q2.65 0.04 2.36 0.04Z"/><path transform="translate(108.08 491.5)" fill="currentColor" stroke="none" d="M0.49 0.03Q0.39 0.03 0.33 0Q0.27 -0.03 0.27 -0.08Q0.27 -0.18 0.52 -0.24Q0.84 -0.3 0.94 -0.43Q1.05 -0.56 1.05 -0.86V-4.81Q1.05 -5.11 0.97 -5.23Q0.89 -5.36 0.57 -5.43Q0.31 -5.48 0.31 -5.59Q0.31 -5.64 0.37 -5.68Q0.43 -5.71 0.53 -5.71Q0.76 -5.71 0.92 -5.7Q1.07 -5.7 1.22 -5.69Q1.36 -5.68 1.54 -5.68Q1.72 -5.68 1.87 -5.68Q2.03 -5.69 2.2 -5.7Q2.37 -5.7 2.59 -5.7Q2.81 -5.7 2.81 -5.59Q2.81 -5.52 2.75 -5.49Q2.68 -5.45 2.56 -5.43Q2.23 -5.35 2.1 -5.21Q1.97 -5.07 1.97 -4.81V-3.14Q1.97 -3.08 2.01 -3.07Q2.05 -3.05 2.1 -3.05H5.01Q5.09 -3.05 5.09 -3.16V-4.81Q5.09 -5.06 4.98 -5.2Q4.86 -5.35 4.52 -5.43Q4.39 -5.45 4.32 -5.49Q4.26 -5.52 4.26 -5.59Q4.26 -5.7 4.48 -5.7Q4.7 -5.7 4.88 -5.7Q5.07 -5.69 5.24 -5.68Q5.41 -5.68 5.59 -5.68Q5.76 -5.68 5.88 -5.69Q6.01 -5.7 6.15 -5.7Q6.3 -5.71 6.53 -5.71Q6.63 -5.71 6.69 -5.68Q6.75 -5.64 6.75 -5.59Q6.75 -5.48 6.5 -5.43Q6.18 -5.36 6.1 -5.22Q6.02 -5.08 6.02 -4.82V-0.86Q6.02 -0.56 6.11 -0.43Q6.2 -0.3 6.52 -0.24Q6.76 -0.18 6.76 -0.08Q6.76 -0.03 6.7 0Q6.63 0.03 6.53 0.03Q6.32 0.03 6.16 0.02Q6 0.01 5.85 0Q5.7 -0.01 5.53 -0.01Q5.35 -0.01 5.19 0Q5.04 0.01 4.87 0.02Q4.69 0.03 4.47 0.03Q4.37 0.03 4.31 0Q4.25 -0.03 4.25 -0.08Q4.25 -0.15 4.31 -0.18Q4.37 -0.21 4.5 -0.24Q4.8 -0.3 4.94 -0.44Q5.09 -0.58 5.09 -0.85V-2.53Q5.09 -2.59 5.08 -2.63Q5.08 -2.66 5.02 -2.66H2.04Q1.97 -2.66 1.97 -2.56V-0.91Q1.97 -0.65 2.15 -0.47Q2.32 -0.3 2.63 -0.24Q2.76 -0.21 2.82 -0.18Q2.88 -0.15 2.88 -0.08Q2.88 -0.03 2.82 0Q2.76 0.03 2.66 0.03Q2.44 0.03 2.25 0.02Q2.07 0.01 1.9 0Q1.73 -0.01 1.54 -0.01Q1.36 -0.01 1.21 0Q1.05 0.01 0.88 0.02Q0.71 0.03 0.49 0.03Z M9.05 0.04Q8.94 0.04 8.88 0.02Q8.82 -0.01 8.82 -0.06Q8.82 -0.17 9.07 -0.23Q9.4 -0.3 9.54 -0.42Q9.69 -0.55 9.69 -0.86V-4.8Q9.69 -5.1 9.56 -5.23Q9.44 -5.36 9.12 -5.43Q8.99 -5.45 8.93 -5.49Q8.86 -5.54 8.86 -5.6Q8.86 -5.65 8.93 -5.68Q8.99 -5.71 9.09 -5.71Q9.38 -5.71 9.61 -5.7Q9.84 -5.7 10.07 -5.69Q10.29 -5.68 10.55 -5.68Q10.9 -5.68 11.29 -5.68Q11.68 -5.69 11.99 -5.7Q12.29 -5.7 12.49 -5.71Q12.68 -5.72 12.72 -5.72Q12.77 -5.72 12.83 -5.7Q12.88 -5.68 12.89 -5.62Q12.94 -5.35 12.98 -5.09Q13.03 -4.83 13.03 -4.64Q13.03 -4.55 12.99 -4.52Q12.95 -4.49 12.91 -4.49Q12.87 -4.49 12.84 -4.52Q12.81 -4.54 12.79 -4.6Q12.73 -4.77 12.67 -4.91Q12.62 -5.06 12.55 -5.13Q12.44 -5.25 12.29 -5.31Q12.14 -5.37 11.96 -5.37H10.98Q10.86 -5.37 10.74 -5.29Q10.61 -5.21 10.61 -5.06V-3.28Q10.61 -3.19 10.66 -3.14Q10.72 -3.08 10.79 -3.08H11.62Q11.87 -3.08 11.97 -3.2Q12.06 -3.31 12.12 -3.55Q12.18 -3.72 12.29 -3.72Q12.33 -3.72 12.37 -3.68Q12.4 -3.64 12.4 -3.56Q12.4 -3.51 12.39 -3.39Q12.39 -3.27 12.38 -3.14Q12.37 -3.01 12.37 -2.93Q12.37 -2.83 12.37 -2.7Q12.38 -2.56 12.39 -2.43Q12.39 -2.3 12.39 -2.24Q12.4 -2.16 12.38 -2.11Q12.36 -2.06 12.32 -2.06Q12.18 -2.06 12.11 -2.32Q12.05 -2.54 11.96 -2.66Q11.87 -2.77 11.69 -2.77H10.88Q10.74 -2.77 10.68 -2.73Q10.61 -2.68 10.61 -2.54V-0.87Q10.61 -0.57 10.74 -0.45Q10.87 -0.33 11.14 -0.33H11.83Q12.08 -0.33 12.26 -0.37Q12.45 -0.4 12.58 -0.5Q12.73 -0.6 12.84 -0.77Q12.95 -0.93 13.08 -1.18Q13.11 -1.23 13.15 -1.26Q13.18 -1.29 13.22 -1.28Q13.28 -1.28 13.3 -1.24Q13.32 -1.21 13.32 -1.14Q13.32 -1.05 13.28 -0.86Q13.23 -0.66 13.17 -0.45Q13.1 -0.24 13.05 -0.1Q13.02 -0.03 12.99 0Q12.95 0.04 12.9 0.04Q12.59 0.04 12.25 0.03Q11.9 0.03 11.55 0.02L10.83 0Q10.47 -0.01 10.12 -0.01Q9.94 -0.01 9.77 0Q9.61 0.02 9.44 0.03Q9.27 0.04 9.05 0.04Z"/><path transform="translate(123.09 491.5)" fill="currentColor" stroke="none" d="M4.38 0.06Q4.24 0.06 4.17 0.02Q4.09 -0.01 4.09 -0.08Q4.09 -0.22 4.41 -0.29Q4.83 -0.38 5.03 -0.54Q5.23 -0.71 5.23 -1.1V-6.16Q5.23 -6.54 5.07 -6.72Q4.92 -6.9 4.5 -6.96Q4.33 -6.98 4.26 -7.04Q4.18 -7.1 4.18 -7.18Q4.18 -7.25 4.26 -7.29Q4.33 -7.32 4.47 -7.32Q4.79 -7.32 4.98 -7.31Q5.17 -7.3 5.35 -7.3Q5.52 -7.29 5.76 -7.29Q5.99 -7.29 6.16 -7.31Q6.34 -7.32 6.56 -7.34Q6.78 -7.36 7.12 -7.36Q8.44 -7.36 9.1 -6.98Q9.77 -6.61 9.77 -5.69Q9.77 -5.32 9.63 -5.03Q9.49 -4.74 9.32 -4.58Q9.14 -4.41 8.98 -4.31Q8.81 -4.21 8.54 -4.12Q8.5 -4.11 8.5 -4.07Q8.5 -4.03 8.54 -4.01Q8.81 -3.93 9.1 -3.81Q9.38 -3.7 9.64 -3.5Q9.9 -3.3 10.05 -2.98Q10.2 -2.67 10.2 -2.17Q10.2 -1.56 10.01 -1.19Q9.81 -0.83 9.54 -0.64Q9.27 -0.45 9.04 -0.32Q8.68 -0.15 8.22 -0.05Q7.76 0.04 7.11 0.04Q6.89 0.04 6.57 0.02Q6.25 0 5.88 0Q5.61 0 5.38 0.01Q5.15 0.02 4.92 0.04Q4.68 0.06 4.38 0.06ZM7.21 -0.47Q7.66 -0.47 8.04 -0.68Q8.41 -0.9 8.64 -1.27Q8.87 -1.65 8.87 -2.11Q8.87 -2.53 8.74 -2.81Q8.61 -3.08 8.44 -3.25Q8.28 -3.42 8.14 -3.49Q8.01 -3.58 7.73 -3.67Q7.45 -3.76 7 -3.76Q6.71 -3.76 6.56 -3.64Q6.41 -3.52 6.41 -3.37V-1.23Q6.41 -0.81 6.62 -0.64Q6.83 -0.47 7.21 -0.47ZM6.9 -4.14Q7.19 -4.14 7.5 -4.21Q7.81 -4.28 8.11 -4.47Q8.22 -4.54 8.39 -4.79Q8.56 -5.04 8.56 -5.51Q8.56 -5.89 8.44 -6.22Q8.32 -6.55 8 -6.76Q7.68 -6.97 7.09 -6.97Q6.69 -6.97 6.55 -6.84Q6.41 -6.72 6.41 -6.47V-4.56Q6.41 -4.29 6.58 -4.22Q6.76 -4.14 6.9 -4.14Z"/><path transform="translate(135.21 491.5)" fill="currentColor" stroke="none" d="M0.44 0.04Q0.34 0.04 0.28 0.01Q0.22 -0.03 0.22 -0.07Q0.22 -0.14 0.29 -0.18Q0.36 -0.22 0.4 -0.23Q0.73 -0.31 0.9 -0.43Q1.06 -0.55 1.06 -0.84V-4.87Q1.06 -5.08 1.01 -5.18Q0.97 -5.28 0.85 -5.33Q0.73 -5.38 0.52 -5.43Q0.26 -5.48 0.26 -5.6Q0.26 -5.66 0.33 -5.69Q0.39 -5.71 0.49 -5.71Q0.71 -5.71 0.88 -5.7Q1.06 -5.7 1.21 -5.69Q1.37 -5.68 1.56 -5.68Q1.76 -5.68 1.95 -5.68Q2.13 -5.69 2.32 -5.7Q2.52 -5.7 2.73 -5.7Q2.84 -5.7 2.9 -5.68Q2.95 -5.66 2.95 -5.6Q2.95 -5.53 2.89 -5.49Q2.83 -5.45 2.7 -5.43Q2.37 -5.35 2.18 -5.25Q1.98 -5.16 1.98 -4.91V-0.86Q1.98 -0.59 2.1 -0.48Q2.22 -0.36 2.59 -0.36H3.6Q3.83 -0.36 4 -0.43Q4.17 -0.5 4.26 -0.59Q4.43 -0.73 4.52 -0.87Q4.61 -1 4.72 -1.23Q4.76 -1.33 4.81 -1.42Q4.87 -1.5 4.93 -1.5Q4.99 -1.5 5.01 -1.45Q5.04 -1.39 5.04 -1.34Q5.04 -1.32 5.03 -1.29Q5.02 -1.27 5.02 -1.24Q4.96 -1 4.91 -0.82Q4.86 -0.64 4.83 -0.47Q4.8 -0.31 4.78 -0.11Q4.77 -0.05 4.74 -0Q4.72 0.04 4.65 0.04Q4.31 0.04 3.92 0.03Q3.54 0.03 3.14 0.02Q2.75 0.02 2.37 0.01Q1.99 0 1.64 0Q1.43 0 1.17 0.01Q0.92 0.02 0.7 0.03Q0.49 0.04 0.44 0.04Z M6.83 0.04Q6.72 0.04 6.65 0.01Q6.58 -0.02 6.58 -0.08Q6.58 -0.15 6.65 -0.19Q6.72 -0.24 6.85 -0.28Q7.08 -0.35 7.27 -0.49Q7.47 -0.63 7.59 -0.92Q7.82 -1.45 8.03 -1.94Q8.23 -2.42 8.41 -2.89Q8.59 -3.36 8.79 -3.87Q8.98 -4.37 9.18 -4.94Q9.26 -5.14 9.29 -5.27Q9.33 -5.41 9.34 -5.51Q9.45 -5.54 9.55 -5.57Q9.64 -5.6 9.76 -5.66Q9.86 -5.71 9.92 -5.81Q9.97 -5.91 10.01 -5.96Q10.03 -5.97 10.05 -5.97Q10.07 -5.98 10.09 -5.94Q10.11 -5.9 10.13 -5.84Q10.14 -5.79 10.16 -5.73Q10.36 -5.09 10.57 -4.43Q10.79 -3.77 11 -3.14Q11.21 -2.52 11.39 -1.98Q11.57 -1.44 11.7 -1.04Q11.8 -0.75 11.93 -0.6Q12.06 -0.45 12.21 -0.37Q12.36 -0.3 12.53 -0.26Q12.66 -0.24 12.73 -0.18Q12.8 -0.13 12.8 -0.06Q12.8 -0.01 12.73 0.01Q12.66 0.03 12.57 0.03Q12.43 0.03 12.2 0.02Q11.97 0.01 11.73 0Q11.49 -0.01 11.28 -0.01H10.92Q10.72 -0.01 10.54 0Q10.36 0.01 10.23 0.01Q10.12 0.01 10.06 -0.02Q9.99 -0.05 9.99 -0.1Q9.99 -0.17 10.07 -0.22Q10.15 -0.26 10.25 -0.28Q10.55 -0.33 10.69 -0.44Q10.82 -0.54 10.8 -0.72Q10.79 -0.86 10.73 -1.09Q10.68 -1.31 10.61 -1.56Q10.54 -1.81 10.48 -2.02Q10.46 -2.09 10.42 -2.11Q10.38 -2.12 10.27 -2.12H8.65Q8.61 -2.12 8.58 -2.09Q8.54 -2.06 8.51 -1.97Q8.48 -1.87 8.42 -1.71Q8.37 -1.55 8.31 -1.37Q8.26 -1.19 8.22 -1.04Q8.18 -0.88 8.17 -0.81Q8.15 -0.59 8.28 -0.47Q8.42 -0.34 8.69 -0.27Q8.95 -0.2 8.95 -0.1Q8.95 -0.03 8.89 -0.01Q8.82 0.01 8.72 0.01Q8.55 0.01 8.33 0Q8.11 -0.01 7.87 -0.01Q7.59 -0.01 7.33 0.02Q7.06 0.04 6.83 0.04ZM8.9 -2.48H10.17Q10.3 -2.48 10.3 -2.52Q10.3 -2.55 10.3 -2.57L10.28 -2.62L9.63 -4.69Q9.59 -4.83 9.56 -4.83Q9.55 -4.83 9.5 -4.7L8.74 -2.62Q8.72 -2.57 8.72 -2.55Q8.72 -2.51 8.77 -2.49Q8.82 -2.48 8.9 -2.48Z M20.08 0.16Q19.99 0.16 19.75 0.02Q19.51 -0.11 19.28 -0.42Q19.19 -0.52 18.99 -0.76Q18.79 -0.99 18.53 -1.29Q18.26 -1.6 17.96 -1.95Q17.66 -2.3 17.36 -2.64Q17.06 -2.99 16.79 -3.29Q16.52 -3.6 16.32 -3.84Q16.11 -4.07 16.01 -4.18Q15.96 -4.24 15.92 -4.27Q15.89 -4.31 15.85 -4.31Q15.82 -4.31 15.8 -4.24Q15.78 -4.18 15.78 -4.12Q15.77 -3.7 15.77 -3.15Q15.77 -2.6 15.77 -2.02Q15.76 -1.44 15.76 -0.93Q15.76 -0.68 15.9 -0.49Q16.04 -0.31 16.37 -0.24Q16.5 -0.21 16.57 -0.17Q16.65 -0.14 16.65 -0.07Q16.65 -0.02 16.58 0.01Q16.51 0.03 16.4 0.03Q16.17 0.03 16.04 0.02Q15.91 0.01 15.81 0Q15.7 0 15.53 0Q15.36 0 15.24 0.01Q15.13 0.02 15.01 0.03Q14.9 0.03 14.73 0.03Q14.64 0.03 14.56 0.01Q14.49 -0.01 14.49 -0.07Q14.49 -0.13 14.56 -0.17Q14.63 -0.21 14.76 -0.24Q14.99 -0.31 15.11 -0.5Q15.22 -0.69 15.24 -0.95Q15.27 -1.28 15.31 -1.83Q15.35 -2.37 15.38 -3.04Q15.41 -3.71 15.41 -4.43Q15.41 -4.89 15.17 -5.09Q14.93 -5.29 14.57 -5.42Q14.52 -5.43 14.41 -5.49Q14.3 -5.54 14.3 -5.62Q14.3 -5.7 14.38 -5.72Q14.46 -5.75 14.51 -5.75Q14.74 -5.74 14.91 -5.74Q15.08 -5.73 15.24 -5.72Q15.4 -5.71 15.57 -5.71Q15.75 -5.7 15.98 -5.7Q16.06 -5.7 16.1 -5.67Q16.15 -5.63 16.18 -5.57Q16.28 -5.46 16.48 -5.22Q16.69 -4.97 16.96 -4.64Q17.24 -4.31 17.55 -3.94Q17.87 -3.56 18.18 -3.19Q18.5 -2.81 18.78 -2.48Q19.06 -2.15 19.26 -1.91Q19.47 -1.67 19.55 -1.56Q19.59 -1.53 19.65 -1.47Q19.7 -1.41 19.75 -1.41Q19.83 -1.41 19.83 -1.57V-2.1Q19.83 -2.45 19.84 -2.91Q19.84 -3.37 19.84 -3.88Q19.84 -4.39 19.83 -4.9Q19.83 -5.09 19.65 -5.23Q19.48 -5.36 19.28 -5.41Q19.15 -5.43 19.05 -5.47Q18.94 -5.51 18.94 -5.58Q18.94 -5.63 19.05 -5.66Q19.15 -5.69 19.25 -5.69H19.87Q20.07 -5.69 20.19 -5.69Q20.31 -5.7 20.46 -5.7Q20.6 -5.71 20.86 -5.71Q20.96 -5.71 21.03 -5.69Q21.09 -5.66 21.09 -5.6Q21.09 -5.48 20.82 -5.43Q20.51 -5.36 20.39 -5.26Q20.28 -5.16 20.27 -4.94Q20.27 -4.8 20.26 -4.48Q20.25 -4.16 20.25 -3.73Q20.24 -3.3 20.24 -2.83Q20.23 -2.36 20.23 -1.9V-1.08Q20.23 -0.87 20.24 -0.68Q20.26 -0.48 20.28 -0.34Q20.29 -0.19 20.29 -0.12Q20.29 0.04 20.23 0.1Q20.17 0.16 20.08 0.16Z M23.16 0.04Q23.06 0.04 22.98 0.02Q22.91 -0.01 22.91 -0.07Q22.91 -0.18 23.18 -0.24Q23.51 -0.3 23.63 -0.43Q23.75 -0.57 23.75 -0.87V-4.81Q23.75 -5.11 23.62 -5.23Q23.5 -5.36 23.16 -5.43Q22.91 -5.48 22.91 -5.6Q22.91 -5.66 22.97 -5.69Q23.04 -5.71 23.13 -5.71Q23.36 -5.71 23.53 -5.7Q23.7 -5.7 23.86 -5.69Q24.02 -5.69 24.21 -5.69Q24.37 -5.69 24.52 -5.69Q24.66 -5.7 24.82 -5.7Q24.99 -5.7 25.2 -5.7Q25.31 -5.7 25.37 -5.68Q25.42 -5.66 25.42 -5.6Q25.42 -5.53 25.36 -5.49Q25.3 -5.45 25.17 -5.43Q24.84 -5.35 24.75 -5.21Q24.67 -5.07 24.67 -4.81V-3.13Q24.67 -3.08 24.68 -3.03Q24.7 -2.97 24.73 -2.97Q24.78 -2.97 24.84 -3.02Q24.91 -3.07 24.96 -3.12L26.68 -4.91Q26.75 -4.99 26.79 -5.05Q26.83 -5.12 26.83 -5.18Q26.83 -5.35 26.59 -5.4Q26.46 -5.43 26.41 -5.47Q26.35 -5.51 26.35 -5.58Q26.35 -5.63 26.41 -5.66Q26.48 -5.69 26.58 -5.69H27.09Q27.36 -5.69 27.66 -5.7Q27.96 -5.7 28.22 -5.71Q28.48 -5.72 28.62 -5.72Q28.71 -5.72 28.76 -5.69Q28.82 -5.66 28.82 -5.62Q28.82 -5.55 28.75 -5.5Q28.67 -5.46 28.54 -5.43Q28.18 -5.37 27.84 -5.24Q27.5 -5.1 27.21 -4.87Q26.92 -4.63 26.65 -4.39Q26.39 -4.14 26.14 -3.88Q25.89 -3.63 25.59 -3.31Q25.56 -3.29 25.56 -3.27Q25.55 -3.21 25.62 -3.12L27.73 -0.84Q27.9 -0.66 28.01 -0.55Q28.13 -0.44 28.28 -0.36Q28.43 -0.29 28.66 -0.24Q28.79 -0.2 28.87 -0.17Q28.95 -0.14 28.95 -0.07Q28.95 -0.02 28.87 0.01Q28.79 0.04 28.66 0.04Q28.41 0.04 28.2 0.03Q27.99 0.02 27.79 0Q27.59 -0.01 27.33 -0.01Q27.12 -0.01 26.95 0Q26.79 0.02 26.49 0.02Q26.39 0.02 26.33 -0.01Q26.26 -0.03 26.26 -0.1Q26.26 -0.2 26.48 -0.25Q26.76 -0.31 26.76 -0.45Q26.76 -0.51 26.72 -0.56Q26.68 -0.62 26.63 -0.69L24.92 -2.6Q24.87 -2.66 24.82 -2.7Q24.76 -2.74 24.72 -2.74Q24.69 -2.74 24.68 -2.69Q24.67 -2.63 24.67 -2.58Q24.67 -2.17 24.68 -1.79Q24.69 -1.42 24.71 -0.93Q24.72 -0.75 24.76 -0.61Q24.8 -0.47 24.92 -0.38Q25.03 -0.29 25.25 -0.24Q25.38 -0.21 25.45 -0.17Q25.52 -0.14 25.52 -0.07Q25.52 -0.02 25.44 0.01Q25.37 0.04 25.27 0.04Q25.02 0.04 24.87 0.03Q24.72 0.01 24.59 -0.01Q24.46 -0.03 24.3 -0.03Q24.09 -0.03 23.93 -0.01Q23.77 0.01 23.59 0.03Q23.41 0.04 23.16 0.04Z"/><path transform="translate(165.59 491.5)" fill="currentColor" stroke="none" d="M8.43 0.17Q7.63 0.17 6.88 -0.1Q6.14 -0.37 5.57 -0.86Q4.99 -1.36 4.66 -2.05Q4.33 -2.74 4.33 -3.6Q4.33 -4.39 4.67 -5.09Q5.01 -5.79 5.6 -6.31Q6.2 -6.83 7 -7.13Q7.79 -7.43 8.72 -7.43Q9.14 -7.43 9.46 -7.39Q9.79 -7.35 10.09 -7.28Q10.39 -7.21 10.74 -7.1Q10.89 -7.06 10.96 -6.98Q11.03 -6.9 11.04 -6.74Q11.08 -6.45 11.1 -6.14Q11.13 -5.82 11.14 -5.44Q11.14 -5.34 11.06 -5.3Q10.98 -5.25 10.87 -5.28Q10.77 -5.31 10.74 -5.43Q10.64 -5.8 10.5 -6.09Q10.37 -6.38 10.11 -6.57Q9.86 -6.78 9.46 -6.89Q9.06 -7 8.57 -7Q7.94 -7 7.41 -6.74Q6.89 -6.48 6.52 -6.04Q6.15 -5.6 5.94 -5.04Q5.73 -4.48 5.73 -3.88Q5.73 -3.17 5.93 -2.52Q6.13 -1.87 6.5 -1.37Q6.88 -0.86 7.41 -0.57Q7.95 -0.27 8.62 -0.27Q9.43 -0.27 9.96 -0.63Q10.48 -1 10.84 -1.68Q10.92 -1.84 11.08 -1.84Q11.23 -1.84 11.23 -1.66Q11.23 -1.55 11.19 -1.35Q11.15 -1.15 11.09 -0.92Q11.02 -0.69 10.95 -0.5Q10.89 -0.36 10.83 -0.3Q10.77 -0.25 10.62 -0.19Q10.19 -0.01 9.61 0.08Q9.04 0.17 8.43 0.17Z"/><path transform="translate(178.93 491.5)" fill="currentColor" stroke="none" d="M0.22 0.04Q0.11 0.04 0.04 0.01Q-0.03 -0.02 -0.03 -0.08Q-0.03 -0.15 0.04 -0.19Q0.11 -0.24 0.24 -0.28Q0.47 -0.35 0.66 -0.49Q0.86 -0.63 0.98 -0.92Q1.21 -1.45 1.42 -1.94Q1.62 -2.42 1.8 -2.89Q1.98 -3.36 2.18 -3.87Q2.37 -4.37 2.57 -4.94Q2.65 -5.14 2.68 -5.27Q2.72 -5.41 2.73 -5.51Q2.84 -5.54 2.94 -5.57Q3.03 -5.6 3.14 -5.66Q3.25 -5.71 3.31 -5.81Q3.36 -5.91 3.4 -5.96Q3.42 -5.97 3.44 -5.97Q3.46 -5.98 3.48 -5.94Q3.5 -5.9 3.52 -5.84Q3.53 -5.79 3.55 -5.73Q3.75 -5.09 3.96 -4.43Q4.18 -3.77 4.39 -3.14Q4.6 -2.52 4.78 -1.98Q4.96 -1.44 5.09 -1.04Q5.19 -0.75 5.32 -0.6Q5.45 -0.45 5.6 -0.37Q5.75 -0.3 5.92 -0.26Q6.05 -0.24 6.12 -0.18Q6.19 -0.13 6.19 -0.06Q6.19 -0.01 6.12 0.01Q6.05 0.03 5.96 0.03Q5.82 0.03 5.59 0.02Q5.36 0.01 5.12 0Q4.87 -0.01 4.67 -0.01H4.31Q4.11 -0.01 3.93 0Q3.75 0.01 3.62 0.01Q3.51 0.01 3.45 -0.02Q3.38 -0.05 3.38 -0.1Q3.38 -0.17 3.46 -0.22Q3.54 -0.26 3.64 -0.28Q3.94 -0.33 4.08 -0.44Q4.21 -0.54 4.18 -0.72Q4.18 -0.86 4.12 -1.09Q4.07 -1.31 4 -1.56Q3.93 -1.81 3.87 -2.02Q3.85 -2.09 3.81 -2.11Q3.77 -2.12 3.66 -2.12H2.04Q2 -2.12 1.97 -2.09Q1.93 -2.06 1.9 -1.97Q1.87 -1.87 1.81 -1.71Q1.76 -1.55 1.7 -1.37Q1.65 -1.19 1.61 -1.04Q1.57 -0.88 1.56 -0.81Q1.54 -0.59 1.67 -0.47Q1.81 -0.34 2.08 -0.27Q2.34 -0.2 2.34 -0.1Q2.34 -0.03 2.28 -0.01Q2.21 0.01 2.11 0.01Q1.94 0.01 1.72 0Q1.5 -0.01 1.26 -0.01Q0.98 -0.01 0.72 0.02Q0.45 0.04 0.22 0.04ZM2.29 -2.48H3.56Q3.69 -2.48 3.69 -2.52Q3.69 -2.55 3.69 -2.57L3.67 -2.62L3.02 -4.69Q2.98 -4.83 2.95 -4.83Q2.94 -4.83 2.89 -4.7L2.13 -2.62Q2.11 -2.57 2.11 -2.55Q2.11 -2.51 2.16 -2.49Q2.21 -2.48 2.29 -2.48Z M13.19 0.18Q12.87 0.18 12.63 0.12Q12.38 0.05 12.18 -0.08Q11.98 -0.21 11.83 -0.4Q11.63 -0.66 11.44 -0.91Q11.25 -1.15 11.05 -1.46Q10.85 -1.77 10.58 -2.22Q10.46 -2.44 10.25 -2.54Q10.1 -2.62 9.95 -2.65Q9.8 -2.68 9.7 -2.69Q9.64 -2.69 9.61 -2.64Q9.58 -2.59 9.58 -2.52V-0.93Q9.58 -0.66 9.72 -0.48Q9.86 -0.3 10.2 -0.24Q10.32 -0.21 10.39 -0.17Q10.45 -0.14 10.45 -0.07Q10.45 -0.02 10.39 0.01Q10.33 0.03 10.23 0.03Q10.01 0.03 9.84 0.02Q9.67 0.01 9.52 -0Q9.36 -0.02 9.2 -0.02Q8.99 -0.02 8.8 -0.01L8.43 0.02Q8.24 0.03 8.01 0.03Q7.91 0.03 7.85 0.01Q7.78 -0.01 7.78 -0.07Q7.78 -0.18 8.03 -0.24Q8.37 -0.3 8.51 -0.43Q8.65 -0.56 8.65 -0.86V-4.66Q8.65 -4.95 8.62 -5.11Q8.58 -5.26 8.48 -5.32Q8.37 -5.39 8.13 -5.43Q7.99 -5.44 7.93 -5.49Q7.87 -5.54 7.87 -5.6Q7.87 -5.65 7.93 -5.68Q8 -5.71 8.1 -5.71Q8.35 -5.71 8.49 -5.7Q8.63 -5.7 8.76 -5.69Q8.88 -5.69 9.07 -5.69Q9.25 -5.69 9.39 -5.7Q9.53 -5.71 9.7 -5.73Q9.88 -5.74 10.15 -5.74Q11.13 -5.74 11.65 -5.39Q12.17 -5.03 12.17 -4.32Q12.17 -3.92 12.01 -3.64Q11.84 -3.36 11.6 -3.18Q11.35 -3 11.11 -2.89Q11.07 -2.88 11.08 -2.85Q11.08 -2.82 11.1 -2.78Q11.37 -2.38 11.62 -2.01Q11.87 -1.65 12.15 -1.31Q12.44 -0.98 12.8 -0.64Q13.05 -0.41 13.32 -0.37Q13.58 -0.32 13.89 -0.32Q14.02 -0.32 14.02 -0.2Q14.02 -0.05 13.88 0.03Q13.75 0.11 13.56 0.15Q13.36 0.18 13.19 0.18ZM10 -2.92Q10.38 -2.92 10.64 -3.09Q10.91 -3.26 11.05 -3.54Q11.2 -3.83 11.2 -4.16Q11.2 -4.53 11.1 -4.82Q11 -5.11 10.75 -5.27Q10.5 -5.43 10.03 -5.43Q9.78 -5.43 9.69 -5.26Q9.61 -5.09 9.6 -4.62Q9.59 -4.41 9.59 -4.06Q9.58 -3.71 9.58 -3.23Q9.58 -3.02 9.69 -2.97Q9.81 -2.92 10 -2.92Z M18.75 0.06Q18.59 0.06 18.27 0.04Q17.95 0.03 17.59 0.01Q17.23 0 16.95 0Q16.78 0 16.62 0.01Q16.47 0.02 16.3 0.03Q16.14 0.03 15.92 0.03Q15.82 0.03 15.76 0.01Q15.69 -0.02 15.69 -0.08Q15.69 -0.15 15.75 -0.18Q15.82 -0.21 15.95 -0.24Q16.28 -0.3 16.41 -0.43Q16.53 -0.56 16.53 -0.86V-4.8Q16.53 -5.1 16.41 -5.23Q16.28 -5.36 15.95 -5.43Q15.82 -5.45 15.75 -5.49Q15.69 -5.52 15.69 -5.59Q15.69 -5.65 15.76 -5.68Q15.82 -5.71 15.92 -5.71Q16.14 -5.71 16.3 -5.7Q16.47 -5.7 16.63 -5.69Q16.79 -5.69 16.99 -5.69Q17.13 -5.69 17.34 -5.7Q17.56 -5.7 17.81 -5.72Q18.05 -5.74 18.26 -5.75Q18.47 -5.76 18.59 -5.76Q19.39 -5.76 20 -5.55Q20.6 -5.34 21 -4.96Q21.41 -4.58 21.61 -4.07Q21.82 -3.56 21.82 -2.97Q21.82 -2.36 21.59 -1.81Q21.37 -1.27 20.96 -0.84Q20.54 -0.42 19.98 -0.18Q19.42 0.06 18.75 0.06ZM18.64 -0.3Q19.28 -0.3 19.76 -0.61Q20.24 -0.93 20.51 -1.49Q20.77 -2.05 20.77 -2.79Q20.77 -3.41 20.59 -3.89Q20.4 -4.38 20.09 -4.72Q19.78 -5.06 19.38 -5.24Q18.97 -5.42 18.52 -5.42Q18.18 -5.42 17.94 -5.39Q17.7 -5.37 17.58 -5.28Q17.46 -5.18 17.46 -4.95V-1.09Q17.46 -0.76 17.62 -0.59Q17.78 -0.42 18.05 -0.36Q18.32 -0.3 18.64 -0.3Z"/></g></g></svg>