<svg xmlns="http://www.w3.org/2000/svg" viewBox="0 0 200 200"  xmlns:c2pa="http://c2pa.org/manifest"><metadata><c2pa:manifest>AAAWgmp1bWIAAAAeanVtZGMycGEAEQAQgAAAqgA4m3EDYzJwYQAAABZcanVtYgAAAEdqdW1kYzJtYQARABCAAACqADibcQN1cm46YzJwYTo4NzAzNWVhYS04NTdiLTRiMjItYmZkNy0wMzBkMGE2ZWUxY2UAAAADl2p1bWIAAAApanVtZGMyYXMAEQAQgAAAqgA4m3EDYzJwYS5hc3NlcnRpb25zAAAAALxqdW1iAAAARGp1bWRjYm9yABEAEIAAAKoAOJtxE2MycGEuaW5ncmVkaWVudC52MwAAAAAYYzJzaEEYOhNZn58AP0Rfyj2xxKsAAABwY2JvcqNpZGM6Zm9ybWF0bWltYWdlL3N2Zyt4bWxqaW5zdGFuY2VJRHgseG1wOmlpZDpkNjUyYTNjOS1kOTAyLTQyYWEtYmQyOC1iYzlkOWNiNGQwNDNscmVsYXRpb25zaGlwaHBhcmVudE9mAAAB4mp1bWIAAABBanVtZGNib3IAEQAQgAAAqgA4m3ETYzJwYS5hY3Rpb25zLnYyAAAAABhjMnNov3IBoUwL9y0unbEoht+nngAAAZljYm9yomdhY3Rpb25zgqJmYWN0aW9ua2MycGEub3BlbmVkanBhcmFtZXRlcnOha2luZ3JlZGllbnRzgaJjdXJseC1zZWxmI2p1bWJmPWMycGEuYXNzZXJ0aW9ucy9jMnBhLmluZ3JlZGllbnQudjNkaGFzaFggru56V1w8AySq8o/DAL1531SkW4bSnI0GLuO2tZwxanekZmFjdGlvbngdY29tLmFudGhyb3BpYy5jbGF1ZGUucHJvdmlkZWRqcGFyYW1ldGVyc6F4H2NvbS5hbnRocm9waWMub3JpZ2luLWNvbmZpZGVuY2VndW5rbm93bmtkZXNjcmlwdGlvbnhmQ2xhdWRlIHByb3ZpZGVkIHRoaXMgZmlsZSBhdCB0aGUgcmVxdWVzdCBvZiBhIHVzZXIgYW5kIG1heSBoYXZlIGNyZWF0ZWQgb3IgbW9kaWZpZWQgdGhlIGZpbGUgY29udGVudHMubXNvZnR3YXJlQWdlbnShZG5hbWVmQ2xhdWRlcmFsbEFjdGlvbnNJbmNsdWRlZPUAAADIanVtYgAAAEBqdW1kY2JvcgARABCAAACqADibcRNjMnBhLmhhc2guZGF0YQAAAAAYYzJzaDuOfKNK1BuVVZXRQHqU9K4AAACAY2JvcqVjYWxnZnNoYTI1NmNwYWRNAAAAAAAAAAAAAAAAAGRoYXNoWCB46MA6OuGJZigsj3qfX6DyFMDvWczKegw762BT9LVUt2RuYW1lbmp1bWJmIG1hbmlmZXN0amV4Y2x1c2lvbnOBomVzdGFydBh+Zmxlbmd0aBkeBAAAAj5qdW1iAAAAJ2p1bWRjMmNsABEAEIAAAKoAOJtxA2MycGEuY2xhaW0udjIAAAACD2Nib3KlY2FsZ2ZzaGEyNTZpc2lnbmF0dXJleE1zZWxmI2p1bWJmPS9jMnBhL3VybjpjMnBhOjg3MDM1ZWFhLTg1N2ItNGIyMi1iZmQ3LTAzMGQwYTZlZTFjZS9jMnBhLnNpZ25hdHVyZWppbnN0YW5jZUlEeCx4bXA6aWlkOmU2ODE3NGJlLTViNGQtNDU4NC1iM2RlLTNiM2QyYjI3YWJkNnJjcmVhdGVkX2Fzc2VydGlvbnODomN1cmx4LXNlbGYjanVtYmY9YzJwYS5hc3NlcnRpb25zL2MycGEuaW5ncmVkaWVudC52M2RoYXNoWCCu7npXXDwDJKryj8MAvXnfVKRbhtKcjQYu47a1nDFqd6JjdXJseCpzZWxmI2p1bWJmPWMycGEuYXNzZXJ0aW9ucy9jMnBhLmFjdGlvbnMudjJkaGFzaFggxzGbtR/kX2w7jIZRqNWPQa37ZBogZs43j85Fjni15GaiY3VybHgpc2VsZiNqdW1iZj1jMnBhLmFzc2VydGlvbnMvYzJwYS5oYXNoLmRhdGFkaGFzaFgghtFdXcEvojnKMfhaPXGmMdOVzOXJU7Vg93ZhyAPJAj90Y2xhaW1fZ2VuZXJhdG9yX2luZm+jZG5hbWVvQW50aHJvcGljIEZpbGVzZ3ZlcnNpb25lMS4wLjBrc3BlY1ZlcnNpb25lMi40LjAAABA4anVtYgAAAChqdW1kYzJjcwARABCAAACqADibcQNjMnBhLnNpZ25hdHVyZQAAABAIY2JvctKEWQISogEmGCFZAgowggIGMIIBjaADAgECAhRA5aAK7sI50L64g/oGQgU9Z1UTADAKBggqhkjOPQQDAzBJMRcwFQYDVQQKEw5BbnRocm9waWMsIFBCQzEuMCwGA1UEAxMlQW50aHJvcGljIENvbnRlbnQgQ3JlZGVudGlhbHMgUm9vdCBDQTAeFw0yNjA4MDcxODQzNTZaFw0yODA4MDYxOTQzNTZaMEQxFzAVBgNVBAoTDkFudGhyb3BpYywgUEJDMSkwJwYDVQQDEyBBbnRocm9waWMgQ2xhdWRlIENvbnRlbnQgU2lnbmluZzBZMBMGByqGSM49AgEGCCqGSM49AwEHA0IABJh6CmvLUBgFFNU0vUKlOVtE6djd17L5SuwX0LemFisBM3dkd/3cyjxFA3Qo5S46fX0/ihY0VZ7mfb9KF703t5OjWDBWMA4GA1UdDwEB/wQEAwIHgDAVBgNVHSUEDjAMBgorBgEEAYPoXgIBMAwGA1UdEwEB/wQCMAAwHwYDVR0jBBgwFoAUzlHiBIFOZFsj+OPEz5o+nMHXXMIwCgYIKoZIzj0EAwMDZwAwZAIwMXMdFJ4BetLLVY7ORuE9noqbbAZOZn/aArXyTwFAZfKrPzxF2vPoJNf1+UCdg1XGAjBwX1zd9WGqYkqmL5SFqw1QySjr1zJfpJM9+1rdDwSPLMOPOjKuiXjoU/pUUeG9RwmhY3BhZFkNngAAAAAAAAAAAAAAAAAAAAAAAAAAAAAAAAAAAAAAAAAAAAAAAAAAAAAAAAAAAAAAAAAAAAAAAAAAAAAAAAAAAAAAAAAAAAAAAAAAAAAAAAAAAAAAAAAAAAAAAAAAAAAAAAAAAAAAAAAAAAAAAAAAAAAAAAAAAAAAAAAAAAAAAAAAAAAAAAAAAAAAAAAAAAAAAAAAAAAAAAAAAAAAAAAAAAAAAAAAAAAAAAAAAAAAAAAAAAAAAAAAAAAAAAAAAAAAAAAAAAAAAAAAAAAAAAAAAAAAAAAAAAAAAAAAAAAAAAAAAAAAAAAAAAAAAAAAAAAAAAAAAAAAAAAAAAAAAAAAAAAAAAAAAAAAAAAAAAAAAAAAAAAAAAAAAAAAAAAAAAAAAAAAAAAAAAAAAAAAAAAAAAAAAAAAAAAAAAAAAAAAAAAAAAAAAAAAAAAAAAAAAAAAAAAAAAAAAAAAAAAAAAAAAAAAAAAAAAAAAAAAAAAAAAAAAAAAAAAAAAAAAAAAAAAAAAAAAAAAAAAAAAAAAAAAAAAAAAAAAAAAAAAAAAAAAAAAAAAAAAAAAAAAAAAAAAAAAAAAAAAAAAAAAAAAAAAAAAAAAAAAAAAAAAAAAAAAAAAAAAAAAAAAAAAAAAAAAAAAAAAAAAAAAAAAAAAAAAAAAAAAAAAAAAAAAAAAAAAAAAAAAAAAAAAAAAAAAAAAAAAAAAAAAAAAAAAAAAAAAAAAAAAAAAAAAAAAAAAAAAAAAAAAAAAAAAAAAAAAAAAAAAAAAAAAAAAAAAAAAAAAAAAAAAAAAAAAAAAAAAAAAAAAAAAAAAAAAAAAAAAAAAAAAAAAAAAAAAAAAAAAAAAAAAAAAAAAAAAAAAAAAAAAAAAAAAAAAAAAAAAAAAAAAAAAAAAAAAAAAAAAAAAAAAAAAAAAAAAAAAAAAAAAAAAAAAAAAAAAAAAAAAAAAAAAAAAAAAAAAAAAAAAAAAAAAAAAAAAAAAAAAAAAAAAAAAAAAAAAAAAAAAAAAAAAAAAAAAAAAAAAAAAAAAAAAAAAAAAAAAAAAAAAAAAAAAAAAAAAAAAAAAAAAAAAAAAAAAAAAAAAAAAAAAAAAAAAAAAAAAAAAAAAAAAAAAAAAAAAAAAAAAAAAAAAAAAAAAAAAAAAAAAAAAAAAAAAAAAAAAAAAAAAAAAAAAAAAAAAAAAAAAAAAAAAAAAAAAAAAAAAAAAAAAAAAAAAAAAAAAAAAAAAAAAAAAAAAAAAAAAAAAAAAAAAAAAAAAAAAAAAAAAAAAAAAAAAAAAAAAAAAAAAAAAAAAAAAAAAAAAAAAAAAAAAAAAAAAAAAAAAAAAAAAAAAAAAAAAAAAAAAAAAAAAAAAAAAAAAAAAAAAAAAAAAAAAAAAAAAAAAAAAAAAAAAAAAAAAAAAAAAAAAAAAAAAAAAAAAAAAAAAAAAAAAAAAAAAAAAAAAAAAAAAAAAAAAAAAAAAAAAAAAAAAAAAAAAAAAAAAAAAAAAAAAAAAAAAAAAAAAAAAAAAAAAAAAAAAAAAAAAAAAAAAAAAAAAAAAAAAAAAAAAAAAAAAAAAAAAAAAAAAAAAAAAAAAAAAAAAAAAAAAAAAAAAAAAAAAAAAAAAAAAAAAAAAAAAAAAAAAAAAAAAAAAAAAAAAAAAAAAAAAAAAAAAAAAAAAAAAAAAAAAAAAAAAAAAAAAAAAAAAAAAAAAAAAAAAAAAAAAAAAAAAAAAAAAAAAAAAAAAAAAAAAAAAAAAAAAAAAAAAAAAAAAAAAAAAAAAAAAAAAAAAAAAAAAAAAAAAAAAAAAAAAAAAAAAAAAAAAAAAAAAAAAAAAAAAAAAAAAAAAAAAAAAAAAAAAAAAAAAAAAAAAAAAAAAAAAAAAAAAAAAAAAAAAAAAAAAAAAAAAAAAAAAAAAAAAAAAAAAAAAAAAAAAAAAAAAAAAAAAAAAAAAAAAAAAAAAAAAAAAAAAAAAAAAAAAAAAAAAAAAAAAAAAAAAAAAAAAAAAAAAAAAAAAAAAAAAAAAAAAAAAAAAAAAAAAAAAAAAAAAAAAAAAAAAAAAAAAAAAAAAAAAAAAAAAAAAAAAAAAAAAAAAAAAAAAAAAAAAAAAAAAAAAAAAAAAAAAAAAAAAAAAAAAAAAAAAAAAAAAAAAAAAAAAAAAAAAAAAAAAAAAAAAAAAAAAAAAAAAAAAAAAAAAAAAAAAAAAAAAAAAAAAAAAAAAAAAAAAAAAAAAAAAAAAAAAAAAAAAAAAAAAAAAAAAAAAAAAAAAAAAAAAAAAAAAAAAAAAAAAAAAAAAAAAAAAAAAAAAAAAAAAAAAAAAAAAAAAAAAAAAAAAAAAAAAAAAAAAAAAAAAAAAAAAAAAAAAAAAAAAAAAAAAAAAAAAAAAAAAAAAAAAAAAAAAAAAAAAAAAAAAAAAAAAAAAAAAAAAAAAAAAAAAAAAAAAAAAAAAAAAAAAAAAAAAAAAAAAAAAAAAAAAAAAAAAAAAAAAAAAAAAAAAAAAAAAAAAAAAAAAAAAAAAAAAAAAAAAAAAAAAAAAAAAAAAAAAAAAAAAAAAAAAAAAAAAAAAAAAAAAAAAAAAAAAAAAAAAAAAAAAAAAAAAAAAAAAAAAAAAAAAAAAAAAAAAAAAAAAAAAAAAAAAAAAAAAAAAAAAAAAAAAAAAAAAAAAAAAAAAAAAAAAAAAAAAAAAAAAAAAAAAAAAAAAAAAAAAAAAAAAAAAAAAAAAAAAAAAAAAAAAAAAAAAAAAAAAAAAAAAAAAAAAAAAAAAAAAAAAAAAAAAAAAAAAAAAAAAAAAAAAAAAAAAAAAAAAAAAAAAAAAAAAAAAAAAAAAAAAAAAAAAAAAAAAAAAAAAAAAAAAAAAAAAAAAAAAAAAAAAAAAAAAAAAAAAAAAAAAAAAAAAAAAAAAAAAAAAAAAAAAAAAAAAAAAAAAAAAAAAAAAAAAAAAAAAAAAAAAAAAAAAAAAAAAAAAAAAAAAAAAAAAAAAAAAAAAAAAAAAAAAAAAAAAAAAAAAAAAAAAAAAAAAAAAAAAAAAAAAAAAAAAAAAAAAAAAAAAAAAAAAAAAAAAAAAAAAAAAAAAAAAAAAAAAAAAAAAAAAAAAAAAAAAAAAAAAAAAAAAAAAAAAAAAAAAAAAAAAAAAAAAAAAAAAAAAAAAAAAAAAAAAAAAAAAAAAAAAAAAAAAAAAAAAAAAAAAAAAAAAAAAAAAAAAAAAAAAAAAAAAAAAAAAAAAAAAAAAAAAAAAAAAAAAAAAAAAAAAAAAAAAAAAAAAAAAAAAAAAAAAAAAAAAAAAAAAAAAAAAAAAAAAAAAAAAAAAAAAAAAAAAAAAAAAAAAAAAAAAAAAAAAAAAAAAAAAAAAAAAAAAAAAAAAAAAAAAAAAAAAAAAAAAAAAAAAAAAAAAAAAAAAAAAAAAAAAAAAAAAAAAAAAAAAAAAAAAAAAAAAAAAAAAAAAAAAAAAAAAAAAAAAAAAAAAAAAAAAAAAAAAAAAAAAAAAAAAAAAAAAAAAAAAAAAAAAAAAAAAAAAAAAAAAAAAAAAAAAAAAAAAAAAAAAAAAAAAAAAAAAAAAAAAAAAAAAAAAAAAAAAAAAAAAAAAAAAAAAAAAAAAAAAAAAAAAAAAAAAAAAAAAAAAAAAAAAAAAAAAAAAAAAAAAAAAAAAAAAAAAAAAAAAAAAAAAAAAAAAAAAAAAAAAAAAAAAAAAAAAAAAAAAAAAAAAAAAAAAAAAAAAAAAAAAAAAAAAAAAAAAAAAAAAAAAAAAAAAAAAAAAAAAAAAAAAAAAAAAAAAAAAAAAAAAAAAAAAAAAAAAAAAAAAAAAAAAAAAAAAAAAAAAAAAAAAAAAAAAAAAAAAAAAAAAAAAAAAAAAAAAAAAAAAAAAAAAAAAAAAAAAAAAAAAAAAAAAAAAAAAAAAAAAAAAAAAAAAAAAAAAAAAAAAAAAAAAAAAAAAAAAAAAAAAAAAAAAAAAAAAAAAAAAAAAAAAAAAAAAAAAAAAAAAAAAAAAAAAAAAAAAAAAAAAAAAAAAAAAAAAAAAAAAAAAAAAAAAAAAAAAAAAAAAAAAAAAAAAAAAAAAAAAAAAAAAAAAAAAAAAAAAAAAAAAAAAAAAAAAAAAAAAAAAAAAAAAAAAAAAAAAAAAAAAAAAAAAAAAAAAAAAAAAAAAAAAAAAAAAAAAAAAAAAAAAAAAAAAAAAAAAAAAAAAAAAAAAAAAAAAAAAAAAAAAAAAAAAAAAAAAAAAAAAAAAAAAAAAAAAAAAAAAAAAAAAAAAAAAAAAAAAAAAAAAAAAAAAAAAAAAAAAAAAAAAAAAAAAAAAAAAAAAAAAAAAAAAAAAAAAAAAAAAAAAAAAAAAAAAAAAAAAAAAAAAAAAAAAAAAAAAAAAAAAAAAAAAAAAAAAAAAAAAAAAAAAAAAAAAAAAAAAAAAAAAAAAAAAAAAAAAAAAAAAAAAAAAAAAAAAAAAAAAAAAAAAAAAAAAAAAAAAAAAAAAAAAAAAAAAAAAAAAAAAAAAAAAAAAAAAAAAAAAAAAAAAAAAAAAAAAAAAAAAAAAAAAAAAAAAAAAAAAAAAAAAAAAAAAAAAAAAAAAAAAAAAAAAAAAAAAAAAAAAAAAAAAAAAAAAAAAAAAAAAAAAAAAAAAAAAAAAAAAAAAAAAAAAAAAAAAAAAAAAAAAAAAAAAAAAAAAAAAAAAAAAAAAAAAAPZYQM8GhiDTsJU8KSTT4qYIjjk9wPUhuDEynHk9RNedbKtbpkBD+Q6QM2ZVCHwsYLniz/TpYCTI/YX9w72OKHHPVNQ=</c2pa:manifest></metadata><path d="M192 100l-0.2 6l-0.6 6l-1 5.9l-1.4 5.9l-1.7 5.8l-2.1 5.6l-2.5 5.5l-2.8 5.3l-3.2 5.1l-3.5 4.9l-3.8 4.7l-4.1 4.4l-4.4 4.1l-4.7 3.8l-4.9 3.5l-5.1 3.2l-5.3 2.8l-5.5 2.5l-5.6 2.1l-5.8 1.7l-5.9 1.4l-5.9 1l-6 0.6l-6 0.2l-6 -0.2l-6 -0.6l-5.9 -1l-5.9 -1.4l-5.8 -1.7l-5.6 -2.1l-5.5 -2.5l-5.3 -2.8l-5.1 -3.2l-4.9 -3.5l-4.7 -3.8l-4.4 -4.1l-4.1 -4.4l-3.8 -4.7l-3.5 -4.9l-3.2 -5.1l-2.8 -5.3l-2.5 -5.5l-2.1 -5.6l-1.7 -5.8l-1.4 -5.9l-1 -5.9l-0.6 -6l-0.2 -6l0.2 -6l0.6 -6l1 -5.9l1.4 -5.9l1.7 -5.8l2.1 -5.6l2.5 -5.5l2.8 -5.3l3.2 -5.1l3.5 -4.9l3.8 -4.7l4.1 -4.4l4.4 -4.1l4.7 -3.8l4.9 -3.5l5.1 -3.2l5.3 -2.8l5.5 -2.5l5.6 -2.1l5.8 -1.7l5.9 -1.4l5.9 -1l6 -0.6l6 -0.2l6 0.2l6 0.6l5.9 1l5.9 1.4l5.8 1.7l5.6 2.1l5.5 2.5l5.3 2.8l5.1 3.2l4.9 3.5l4.7 3.8l4.4 4.1l4.1 4.4l3.8 4.7l3.5 4.9l3.2 5.1l2.8 5.3l2.5 5.5l2.1 5.6l1.7 5.8l1.4 5.9l1 5.9l0.6 6Z" fill="none" stroke="currentColor" stroke-width="2" stroke-linecap="round" stroke-linejoin="round"/><path d="M186 100l-0.2 5.6l-0.6 5.6l-0.9 5.6l-1.3 5.5l-1.6 5.4l-2 5.3l-2.3 5.1l-2.7 5l-3 4.8l-3.3 4.6l-3.6 4.4l-3.8 4.1l-4.1 3.8l-4.4 3.6l-4.6 3.3l-4.8 3l-5 2.7l-5.1 2.3l-5.3 2l-5.4 1.6l-5.5 1.3l-5.6 0.9l-5.6 0.6l-5.6 0.2l-5.6 -0.2l-5.6 -0.6l-5.6 -0.9l-5.5 -1.3l-5.4 -1.6l-5.3 -2l-5.1 -2.3l-5 -2.7l-4.8 -3l-4.6 -3.3l-4.4 -3.6l-4.1 -3.8l-3.8 -4.1l-3.6 -4.4l-3.3 -4.6l-3 -4.8l-2.7 -5l-2.3 -5.1l-2 -5.3l-1.6 -5.4l-1.3 -5.5l-0.9 -5.6l-0.6 -5.6l-0.2 -5.6l0.2 -5.6l0.6 -5.6l0.9 -5.6l1.3 -5.5l1.6 -5.4l2 -5.3l2.3 -5.1l2.7 -5l3 -4.8l3.3 -4.6l3.6 -4.4l3.8 -4.1l4.1 -3.8l4.4 -3.6l4.6 -3.3l4.8 -3l5 -2.7l5.1 -2.3l5.3 -2l5.4 -1.6l5.5 -1.3l5.6 -0.9l5.6 -0.6l5.6 -0.2l5.6 0.2l5.6 0.6l5.6 0.9l5.5 1.3l5.4 1.6l5.3 2l5.1 2.3l5 2.7l4.8 3l4.6 3.3l4.4 3.6l4.1 3.8l3.8 4.1l3.6 4.4l3.3 4.6l3 4.8l2.7 5l2.3 5.1l2 5.3l1.6 5.4l1.3 5.5l0.9 5.6l0.6 5.6Z" fill="none" stroke="currentColor" stroke-width="0.9" stroke-linecap="round" stroke-linejoin="round"/><path d="M40 150l5.1 -6.3l8 -7.2l8.9 -4.5l10.3 -0.1l11.2 2.5l8.5 3.6l5 4.9l2.4 6l-1.4 5.1l-6.9 3.6l-10.7 2.7l-10.4 1.6l-9.6 0.4l-9.4 -0.7l-7 -1.6l-3.9 -2.4l-1.5 -3.3Z" fill="none" stroke="currentColor" stroke-width="1.4" stroke-linecap="round" stroke-linejoin="round"/><g transform="rotate(-30)"><path d="M-22.5 148H-13.5M-41.8 151.2H-29.8m10.7 0h9.1M-43.9 154.4H-26.3m10.1 0h6.4M-19.1 157.6H-2.9M-41.7 160.8H-17.8M-38.2 164H-28.9m10.9 0h20.9M-34.2 167.2H-27.9m15.5 0h7.3m6.4 0h9.9M-29.5 170.4H-10.8m19.1 0h3.8M-23.6 173.6H-0.4m10.9 0h1.9M-16.5 176.8H11.9M-7.4 180H10.3" fill="none" stroke="currentColor" stroke-width="0.7" stroke-linecap="butt"/></g><path d="M104 156l0.9 -5.8l2.4 -6.9l4.7 -5.3l8.2 -3l10.4 -1.5l9.3 0.5l7.7 3.3l6.6 5.3l3.7 5.3l0.4 5.1l-2.4 5.1l-6 3.8l-12.2 1.9l-15.8 0.6l-12 -0.5l-5 -1.6l-1.3 -2.7Z" fill="none" stroke="currentColor" stroke-width="1.4" stroke-linecap="round" stroke-linejoin="round"/><g transform="rotate(-30)"><path d="M20.2 178.7H28.6m11.5 0h0.8M16.5 181.9H34.9m9.7 0h3.3M23.1 185.1H44.7M11.2 188.3H21.4m8.6 0h16.9m5.5 0h3.5M9.8 191.5H37.9m17.8 0h2.6M11.1 194.7H35.3m10.5 0h14.3M14.7 197.9H50.5M19.7 201.1H38.6m10 0h13.8M25 204.3H50M31 207.5H61M37.1 210.7H61.2M45.3 213.9H57.6" fill="none" stroke="currentColor" stroke-width="0.7" stroke-linecap="butt"/></g><path d="M64 128l4.9 -3.9l7.8 -3.9l7.3 -2.1l6.4 0.6l5.9 2.4l3.7 3l1 3.9l-1.3 4.6l-3.7 3.5l-7.8 1.9l-10.2 0.7l-8 -0.6l-4.4 -2.4l-2.2 -3.8Z" fill="none" stroke="currentColor" stroke-width="1.4" stroke-linecap="round" stroke-linejoin="round"/><g transform="rotate(-30)"><path d="M0.9 145.1H11.5M6.9 148.3H17.1M-10.2 151.5H-5.2" fill="none" stroke="currentColor" stroke-width="0.7" stroke-linecap="butt"/></g><path d="M50.1 167.5l9.9 0.5l40 -3l40 4l8.8 -0.7" fill="none" stroke="currentColor" stroke-width="1.2" stroke-linecap="round" stroke-linejoin="round"/><g transform="rotate(0)"><path d="M61.7 166H84.6m22.2 0h10.7M80.1 169.6H135.6M77 173.2H120.5m19.8 0h0.8M85.6 176.8H92.7m16.2 0h10.4m10.5 0h4.3M75.8 180.4H124.2" fill="none" stroke="currentColor" stroke-width="0.7" stroke-linecap="butt"/></g><path d="M100 138l0.4 -8.3l0.6 -11.9l0.6 -13.3l0.6 -12.6l0.5 -12.6l0.4 -13.3l0.4 -11.9l0.2 -8.3" fill="none" stroke="currentColor" stroke-width="1.3" stroke-linecap="round" stroke-linejoin="round"/><path d="M100.9 109l-2.4 -5.2l-2.8 -4.3l-3.4 -2.6l-3.9 -1l-4.1 -0.4l-4.3 0.1l-4.5 0.6l-5 1.8h0l2.2 6l2.7 4.6l3 3.6l3.4 2.6l3.8 1.4l4.5 -0.6l5.3 -2.7l5.7 -3.9Z" fill="none" stroke="currentColor" stroke-width="1" stroke-linecap="round" stroke-linejoin="round"/><path d="M100.9 109l-27.4 -9.9" fill="none" stroke="currentColor" stroke-width="0.7" stroke-linecap="round" stroke-linejoin="round"/><g transform="rotate(-55)"><path d="M-37.5 121.1H-31.8M-36 125.9H-30.1M-34.7 128.3H-27.5M-47 130.7H-41.7m6.9 0h5M-28.5 133.1H-26.5M-39.5 135.5H-30.4M-44.9 137.9H-38.1M-42.4 140.3H-28.5M-37.8 142.7H-32.7" fill="none" stroke="currentColor" stroke-width="0.6" stroke-linecap="butt"/></g><path d="M100.7 116.4l5.1 4.5l4.8 3.3l4.3 1.2l3.8 -1l3.5 -2.1l3.3 -3.2l3.1 -4.2l2.7 -5.6h0l-4.6 -2.5l-4.3 -1.2l-4.2 -0.6l-4 -0.1l-3.9 0.5l-3.5 2.1l-3.1 3.9l-2.9 4.9Z" fill="none" stroke="currentColor" stroke-width="1" stroke-linecap="round" stroke-linejoin="round"/><path d="M100.7 116.4l27.4 -6.3" fill="none" stroke="currentColor" stroke-width="0.7" stroke-linecap="round" stroke-linejoin="round"/><g transform="rotate(55)"><path d="M157.2 -39.9H165.6M151.2 -32.7H158.4m10.3 0h1M149.9 -30.3H159.6M149.4 -25.5H163.6M150.1 -23.1H157.5M150.8 -20.7H166.9M151.9 -18.3H162.6M153 -15.9H153.9" fill="none" stroke="currentColor" stroke-width="0.6" stroke-linecap="butt"/></g><path d="M102.3 69.4l0.5 1l1 0.5l-1 0.5l-0.5 1l-0.5 -1l-1 -0.5l1 -0.5ZM108.1 69.6l0.7 1.3l1.3 0.7l-1.3 0.7l-0.7 1.3l-0.7 -1.3l-1.3 -0.7l1.3 -0.7ZM103 47.1l0.8 1.4l1.4 0.8l-1.4 0.8l-0.8 1.4l-0.8 -1.4l-1.4 -0.8l1.4 -0.8ZM102 53.7l0.8 1.5l1.5 0.8l-1.5 0.8l-0.8 1.5l-0.8 -1.5l-1.5 -0.8l1.5 -0.8ZM107.7 74.1l0.6 1l1 0.6l-1 0.6l-0.6 1l-0.6 -1l-1 -0.6l1 -0.6ZM105.7 60.6l0.6 1l1 0.6l-1 0.6l-0.6 1l-0.6 -1l-1 -0.6l1 -0.6ZM101.1 60.6l0.6 1.1l1.1 0.6l-1.1 0.6l-0.6 1.1l-0.6 -1.1l-1.1 -0.6l1.1 -0.6ZM109.6 83.8l0.7 1.3l1.3 0.7l-1.3 0.7l-0.7 1.3l-0.7 -1.3l-1.3 -0.7l1.3 -0.7ZM103.2 45l0.7 1.3l1.3 0.7l-1.3 0.7l-0.7 1.3l-0.7 -1.3l-1.3 -0.7l1.3 -0.7ZM104.4 51.8l0.5 1l1 0.5l-1 0.5l-0.5 1l-0.5 -1l-1 -0.5l1 -0.5ZM103.9 48.9l0.7 1.3l1.3 0.7l-1.3 0.7l-0.7 1.3l-0.7 -1.3l-1.3 -0.7l1.3 -0.7ZM102.1 86.2l0.6 1l1 0.6l-1 0.6l-0.6 1l-0.6 -1l-1 -0.6l1 -0.6ZM98.4 74.4l0.5 1l1 0.5l-1 0.5l-0.5 1l-0.5 -1l-1 -0.5l1 -0.5ZM105 70.5l0.8 1.6l1.6 0.8l-1.6 0.8l-0.8 1.6l-0.8 -1.6l-1.6 -0.8l1.6 -0.8ZM94.7 89.7l0.6 1.1l1.1 0.6l-1.1 0.6l-0.6 1.1l-0.6 -1.1l-1.1 -0.6l1.1 -0.6ZM96.9 74.3l0.7 1.3l1.3 0.7l-1.3 0.7l-0.7 1.3l-0.7 -1.3l-1.3 -0.7l1.3 -0.7ZM96.7 81.1l0.7 1.3l1.3 0.7l-1.3 0.7l-0.7 1.3l-0.7 -1.3l-1.3 -0.7l1.3 -0.7ZM102.1 68.1l0.5 1l1 0.5l-1 0.5l-0.5 1l-0.5 -1l-1 -0.5l1 -0.5ZM100.6 80.2l0.7 1.2l1.2 0.7l-1.2 0.7l-0.7 1.2l-0.7 -1.2l-1.2 -0.7l1.2 -0.7ZM98.8 60.6l0.8 1.4l1.4 0.8l-1.4 0.8l-0.8 1.4l-0.8 -1.4l-1.4 -0.8l1.4 -0.8ZM105.3 46.2l0.7 1.4l1.4 0.7l-1.4 0.7l-0.7 1.4l-0.7 -1.4l-1.4 -0.7l1.4 -0.7ZM105.9 57.3l0.8 1.5l1.5 0.8l-1.5 0.8l-0.8 1.5l-0.8 -1.5l-1.5 -0.8l1.5 -0.8ZM101.8 64.8l0.7 1.4l1.4 0.7l-1.4 0.7l-0.7 1.4l-0.7 -1.4l-1.4 -0.7l1.4 -0.7ZM106.2 53l0.8 1.5l1.5 0.8l-1.5 0.8l-0.8 1.5l-0.8 -1.5l-1.5 -0.8l1.5 -0.8ZM108.3 55.6l0.5 1l1 0.5l-1 0.5l-0.5 1l-0.5 -1l-1 -0.5l1 -0.5ZM102.1 48.7l0.8 1.5l1.5 0.8l-1.5 0.8l-0.8 1.5l-0.8 -1.5l-1.5 -0.8l1.5 -0.8ZM99.4 62.6l0.6 1l1 0.6l-1 0.6l-0.6 1l-0.6 -1l-1 -0.6l1 -0.6ZM106 71.3l0.7 1.4l1.4 0.7l-1.4 0.7l-0.7 1.4l-0.7 -1.4l-1.4 -0.7l1.4 -0.7ZM101.1 78.5l0.8 1.4l1.4 0.8l-1.4 0.8l-0.8 1.4l-0.8 -1.4l-1.4 -0.8l1.4 -0.8ZM110.6 79.1l0.5 1l1 0.5l-1 0.5l-0.5 1l-0.5 -1l-1 -0.5l1 -0.5ZM98.6 69.1l0.8 1.4l1.4 0.8l-1.4 0.8l-0.8 1.4l-0.8 -1.4l-1.4 -0.8l1.4 -0.8ZM99.9 57.1l0.7 1.3l1.3 0.7l-1.3 0.7l-0.7 1.3l-0.7 -1.3l-1.3 -0.7l1.3 -0.7ZM99.7 66.1l0.7 1.3l1.3 0.7l-1.3 0.7l-0.7 1.3l-0.7 -1.3l-1.3 -0.7l1.3 -0.7ZM91.5 87.3l0.7 1.3l1.3 0.7l-1.3 0.7l-0.7 1.3l-0.7 -1.3l-1.3 -0.7l1.3 -0.7ZM104.3 68.9l0.7 1.4l1.4 0.7l-1.4 0.7l-0.7 1.4l-0.7 -1.4l-1.4 -0.7l1.4 -0.7ZM100.4 72.1l0.6 1l1 0.6l-1 0.6l-0.6 1l-0.6 -1l-1 -0.6l1 -0.6ZM102.9 78l0.5 1l1 0.5l-1 0.5l-0.5 1l-0.5 -1l-1 -0.5l1 -0.5ZM101.3 72.4l0.8 1.5l1.5 0.8l-1.5 0.8l-0.8 1.5l-0.8 -1.5l-1.5 -0.8l1.5 -0.8ZM106.3 76.9l0.7 1.3l1.3 0.7l-1.3 0.7l-0.7 1.3l-0.7 -1.3l-1.3 -0.7l1.3 -0.7ZM106.4 72.9l0.6 1.1l1.1 0.6l-1.1 0.6l-0.6 1.1l-0.6 -1.1l-1.1 -0.6l1.1 -0.6ZM99.7 73.3l0.7 1.3l1.3 0.7l-1.3 0.7l-0.7 1.3l-0.7 -1.3l-1.3 -0.7l1.3 -0.7ZM95.8 70.1l0.8 1.4l1.4 0.8l-1.4 0.8l-0.8 1.4l-0.8 -1.4l-1.4 -0.8l1.4 -0.8ZM105.8 46l0.8 1.6l1.6 0.8l-1.6 0.8l-0.8 1.6l-0.8 -1.6l-1.6 -0.8l1.6 -0.8ZM96.7 81.1l0.8 1.4l1.4 0.8l-1.4 0.8l-0.8 1.4l-0.8 -1.4l-1.4 -0.8l1.4 -0.8ZM101.7 54.3l0.8 1.5l1.5 0.8l-1.5 0.8l-0.8 1.5l-0.8 -1.5l-1.5 -0.8l1.5 -0.8ZM100.6 87.2l0.7 1.3l1.3 0.7l-1.3 0.7l-0.7 1.3l-0.7 -1.3l-1.3 -0.7l1.3 -0.7ZM105.1 63.2l0.7 1.3l1.3 0.7l-1.3 0.7l-0.7 1.3l-0.7 -1.3l-1.3 -0.7l1.3 -0.7ZM103 55l0.6 1l1 0.6l-1 0.6l-0.6 1l-0.6 -1l-1 -0.6l1 -0.6ZM96.4 81.9l0.7 1.3l1.3 0.7l-1.3 0.7l-0.7 1.3l-0.7 -1.3l-1.3 -0.7l1.3 -0.7ZM100.1 56.4l0.8 1.4l1.4 0.8l-1.4 0.8l-0.8 1.4l-0.8 -1.4l-1.4 -0.8l1.4 -0.8ZM111 88.3l0.8 1.5l1.5 0.8l-1.5 0.8l-0.8 1.5l-0.8 -1.5l-1.5 -0.8l1.5 -0.8ZM111.3 85l0.6 1.1l1.1 0.6l-1.1 0.6l-0.6 1.1l-0.6 -1.1l-1.1 -0.6l1.1 -0.6ZM103.6 74.7l0.7 1.2l1.2 0.7l-1.2 0.7l-0.7 1.2l-0.7 -1.2l-1.2 -0.7l1.2 -0.7ZM101.7 56.9l0.7 1.3l1.3 0.7l-1.3 0.7l-0.7 1.3l-0.7 -1.3l-1.3 -0.7l1.3 -0.7ZM99.8 66.7l0.6 1.1l1.1 0.6l-1.1 0.6l-0.6 1.1l-0.6 -1.1l-1.1 -0.6l1.1 -0.6ZM98.6 72l0.6 1.1l1.1 0.6l-1.1 0.6l-0.6 1.1l-0.6 -1.1l-1.1 -0.6l1.1 -0.6ZM101.1 74.5l0.8 1.4l1.4 0.8l-1.4 0.8l-0.8 1.4l-0.8 -1.4l-1.4 -0.8l1.4 -0.8ZM107.7 84.3l0.6 1.2l1.2 0.6l-1.2 0.6l-0.6 1.2l-0.6 -1.2l-1.2 -0.6l1.2 -0.6ZM103.9 47.2l0.6 1.2l1.2 0.6l-1.2 0.6l-0.6 1.2l-0.6 -1.2l-1.2 -0.6l1.2 -0.6ZM103.9 83.1l0.6 1.1l1.1 0.6l-1.1 0.6l-0.6 1.1l-0.6 -1.1l-1.1 -0.6l1.1 -0.6ZM98.9 72.4l0.5 1l1 0.5l-1 0.5l-0.5 1l-0.5 -1l-1 -0.5l1 -0.5ZM101.6 54.2l0.8 1.6l1.6 0.8l-1.6 0.8l-0.8 1.6l-0.8 -1.6l-1.6 -0.8l1.6 -0.8ZM101.6 75.7l0.6 1.1l1.1 0.6l-1.1 0.6l-0.6 1.1l-0.6 -1.1l-1.1 -0.6l1.1 -0.6ZM101.5 76.4l0.6 1.2l1.2 0.6l-1.2 0.6l-0.6 1.2l-0.6 -1.2l-1.2 -0.6l1.2 -0.6ZM104.8 56l0.5 1l1 0.5l-1 0.5l-0.5 1l-0.5 -1l-1 -0.5l1 -0.5ZM95.6 77.6l0.7 1.4l1.4 0.7l-1.4 0.7l-0.7 1.4l-0.7 -1.4l-1.4 -0.7l1.4 -0.7ZM108.3 83.9l0.7 1.2l1.2 0.7l-1.2 0.7l-0.7 1.2l-0.7 -1.2l-1.2 -0.7l1.2 -0.7ZM99.5 77.4l0.6 1.2l1.2 0.6l-1.2 0.6l-0.6 1.2l-0.6 -1.2l-1.2 -0.6l1.2 -0.6ZM104.5 72.3l0.6 1.1l1.1 0.6l-1.1 0.6l-0.6 1.1l-0.6 -1.1l-1.1 -0.6l1.1 -0.6ZM106.2 79.4l0.6 1.1l1.1 0.6l-1.1 0.6l-0.6 1.1l-0.6 -1.1l-1.1 -0.6l1.1 -0.6ZM108.8 70.1l0.7 1.4l1.4 0.7l-1.4 0.7l-0.7 1.4l-0.7 -1.4l-1.4 -0.7l1.4 -0.7ZM109.2 67.4l0.8 1.4l1.4 0.8l-1.4 0.8l-0.8 1.4l-0.8 -1.4l-1.4 -0.8l1.4 -0.8ZM96.6 69l0.7 1.2l1.2 0.7l-1.2 0.7l-0.7 1.2l-0.7 -1.2l-1.2 -0.7l1.2 -0.7ZM111.4 75.5l0.8 1.5l1.5 0.8l-1.5 0.8l-0.8 1.5l-0.8 -1.5l-1.5 -0.8l1.5 -0.8ZM102.6 50.6l0.8 1.5l1.5 0.8l-1.5 0.8l-0.8 1.5l-0.8 -1.5l-1.5 -0.8l1.5 -0.8ZM104 55.5l0.7 1.4l1.4 0.7l-1.4 0.7l-0.7 1.4l-0.7 -1.4l-1.4 -0.7l1.4 -0.7ZM98.3 88.3l0.7 1.3l1.3 0.7l-1.3 0.7l-0.7 1.3l-0.7 -1.3l-1.3 -0.7l1.3 -0.7ZM106.3 55.3l0.6 1.1l1.1 0.6l-1.1 0.6l-0.6 1.1l-0.6 -1.1l-1.1 -0.6l1.1 -0.6ZM103.1 46.6l0.8 1.5l1.5 0.8l-1.5 0.8l-0.8 1.5l-0.8 -1.5l-1.5 -0.8l1.5 -0.8ZM102.2 48l0.6 1.1l1.1 0.6l-1.1 0.6l-0.6 1.1l-0.6 -1.1l-1.1 -0.6l1.1 -0.6ZM104.1 76.8l0.8 1.4l1.4 0.8l-1.4 0.8l-0.8 1.4l-0.8 -1.4l-1.4 -0.8l1.4 -0.8ZM97 86.9l0.6 1.2l1.2 0.6l-1.2 0.6l-0.6 1.2l-0.6 -1.2l-1.2 -0.6l1.2 -0.6ZM103.5 61.2l0.7 1.3l1.3 0.7l-1.3 0.7l-0.7 1.3l-0.7 -1.3l-1.3 -0.7l1.3 -0.7ZM106.8 49.9l0.7 1.3l1.3 0.7l-1.3 0.7l-0.7 1.3l-0.7 -1.3l-1.3 -0.7l1.3 -0.7ZM101.3 85.9l0.5 1l1 0.5l-1 0.5l-0.5 1l-0.5 -1l-1 -0.5l1 -0.5ZM100.5 70.1l0.5 1l1 0.5l-1 0.5l-0.5 1l-0.5 -1l-1 -0.5l1 -0.5ZM99.1 67.4l0.6 1.1l1.1 0.6l-1.1 0.6l-0.6 1.1l-0.6 -1.1l-1.1 -0.6l1.1 -0.6ZM110.3 75.4l0.6 1.2l1.2 0.6l-1.2 0.6l-0.6 1.2l-0.6 -1.2l-1.2 -0.6l1.2 -0.6ZM104.5 86.2l0.6 1.1l1.1 0.6l-1.1 0.6l-0.6 1.1l-0.6 -1.1l-1.1 -0.6l1.1 -0.6ZM100.6 48.6l0.6 1.2l1.2 0.6l-1.2 0.6l-0.6 1.2l-0.6 -1.2l-1.2 -0.6l1.2 -0.6ZM106.1 72.2l0.7 1.4l1.4 0.7l-1.4 0.7l-0.7 1.4l-0.7 -1.4l-1.4 -0.7l1.4 -0.7ZM94.2 85.9l0.8 1.5l1.5 0.8l-1.5 0.8l-0.8 1.5l-0.8 -1.5l-1.5 -0.8l1.5 -0.8ZM106 63.3l0.7 1.3l1.3 0.7l-1.3 0.7l-0.7 1.3l-0.7 -1.3l-1.3 -0.7l1.3 -0.7ZM92.1 83.9l0.7 1.2l1.2 0.7l-1.2 0.7l-0.7 1.2l-0.7 -1.2l-1.2 -0.7l1.2 -0.7ZM106.9 61.4l0.6 1l1 0.6l-1 0.6l-0.6 1l-0.6 -1l-1 -0.6l1 -0.6ZM110.6 83.3l0.6 1.1l1.1 0.6l-1.1 0.6l-0.6 1.1l-0.6 -1.1l-1.1 -0.6l1.1 -0.6ZM96.6 66.8l0.8 1.5l1.5 0.8l-1.5 0.8l-0.8 1.5l-0.8 -1.5l-1.5 -0.8l1.5 -0.8ZM105.1 55.9l0.7 1.2l1.2 0.7l-1.2 0.7l-0.7 1.2l-0.7 -1.2l-1.2 -0.7l1.2 -0.7ZM103.4 46.8l0.8 1.5l1.5 0.8l-1.5 0.8l-0.8 1.5l-0.8 -1.5l-1.5 -0.8l1.5 -0.8ZM112.1 85.5l0.6 1.1l1.1 0.6l-1.1 0.6l-0.6 1.1l-0.6 -1.1l-1.1 -0.6l1.1 -0.6ZM102 44l0.7 1.3l1.3 0.7l-1.3 0.7l-0.7 1.3l-0.7 -1.3l-1.3 -0.7l1.3 -0.7ZM100.3 63.2l0.8 1.5l1.5 0.8l-1.5 0.8l-0.8 1.5l-0.8 -1.5l-1.5 -0.8l1.5 -0.8ZM105.6 70.9l0.8 1.5l1.5 0.8l-1.5 0.8l-0.8 1.5l-0.8 -1.5l-1.5 -0.8l1.5 -0.8ZM103.4 55.8l0.8 1.4l1.4 0.8l-1.4 0.8l-0.8 1.4l-0.8 -1.4l-1.4 -0.8l1.4 -0.8ZM100.4 76l0.7 1.2l1.2 0.7l-1.2 0.7l-0.7 1.2l-0.7 -1.2l-1.2 -0.7l1.2 -0.7ZM105.7 71.9l0.7 1.2l1.2 0.7l-1.2 0.7l-0.7 1.2l-0.7 -1.2l-1.2 -0.7l1.2 -0.7ZM106.9 80l0.7 1.3l1.3 0.7l-1.3 0.7l-0.7 1.3l-0.7 -1.3l-1.3 -0.7l1.3 -0.7ZM98.2 71.3l0.7 1.3l1.3 0.7l-1.3 0.7l-0.7 1.3l-0.7 -1.3l-1.3 -0.7l1.3 -0.7ZM104.9 85.2l0.7 1.4l1.4 0.7l-1.4 0.7l-0.7 1.4l-0.7 -1.4l-1.4 -0.7l1.4 -0.7ZM106.9 51l0.6 1.1l1.1 0.6l-1.1 0.6l-0.6 1.1l-0.6 -1.1l-1.1 -0.6l1.1 -0.6ZM105.3 44.7l0.7 1.3l1.3 0.7l-1.3 0.7l-0.7 1.3l-0.7 -1.3l-1.3 -0.7l1.3 -0.7ZM101 78.4l0.8 1.5l1.5 0.8l-1.5 0.8l-0.8 1.5l-0.8 -1.5l-1.5 -0.8l1.5 -0.8ZM100.6 78.4l0.6 1.2l1.2 0.6l-1.2 0.6l-0.6 1.2l-0.6 -1.2l-1.2 -0.6l1.2 -0.6ZM112.3 76.2l0.8 1.4l1.4 0.8l-1.4 0.8l-0.8 1.4l-0.8 -1.4l-1.4 -0.8l1.4 -0.8ZM107.5 73.5l0.7 1.2l1.2 0.7l-1.2 0.7l-0.7 1.2l-0.7 -1.2l-1.2 -0.7l1.2 -0.7ZM103 80.4l0.8 1.5l1.5 0.8l-1.5 0.8l-0.8 1.5l-0.8 -1.5l-1.5 -0.8l1.5 -0.8ZM104.8 84.5l0.8 1.5l1.5 0.8l-1.5 0.8l-0.8 1.5l-0.8 -1.5l-1.5 -0.8l1.5 -0.8ZM103.5 58.8l0.8 1.4l1.4 0.8l-1.4 0.8l-0.8 1.4l-0.8 -1.4l-1.4 -0.8l1.4 -0.8ZM99.7 52.7l0.8 1.4l1.4 0.8l-1.4 0.8l-0.8 1.4l-0.8 -1.4l-1.4 -0.8l1.4 -0.8ZM99.3 80.5l0.7 1.4l1.4 0.7l-1.4 0.7l-0.7 1.4l-0.7 -1.4l-1.4 -0.7l1.4 -0.7ZM108.8 87.5l0.7 1.2l1.2 0.7l-1.2 0.7l-0.7 1.2l-0.7 -1.2l-1.2 -0.7l1.2 -0.7ZM100.2 78.6l0.6 1.1l1.1 0.6l-1.1 0.6l-0.6 1.1l-0.6 -1.1l-1.1 -0.6l1.1 -0.6ZM107.8 86.3l0.7 1.3l1.3 0.7l-1.3 0.7l-0.7 1.3l-0.7 -1.3l-1.3 -0.7l1.3 -0.7ZM103.7 53.9l0.6 1.2l1.2 0.6l-1.2 0.6l-0.6 1.2l-0.6 -1.2l-1.2 -0.6l1.2 -0.6ZM107.5 70.5l0.8 1.4l1.4 0.8l-1.4 0.8l-0.8 1.4l-0.8 -1.4l-1.4 -0.8l1.4 -0.8ZM107.7 62.3l0.6 1.2l1.2 0.6l-1.2 0.6l-0.6 1.2l-0.6 -1.2l-1.2 -0.6l1.2 -0.6ZM102.1 67.4l0.8 1.5l1.5 0.8l-1.5 0.8l-0.8 1.5l-0.8 -1.5l-1.5 -0.8l1.5 -0.8ZM106 86.5l0.6 1.1l1.1 0.6l-1.1 0.6l-0.6 1.1l-0.6 -1.1l-1.1 -0.6l1.1 -0.6ZM105.2 47.6l0.8 1.5l1.5 0.8l-1.5 0.8l-0.8 1.5l-0.8 -1.5l-1.5 -0.8l1.5 -0.8ZM102.1 53.3l0.7 1.4l1.4 0.7l-1.4 0.7l-0.7 1.4l-0.7 -1.4l-1.4 -0.7l1.4 -0.7ZM99.3 54l0.8 1.4l1.4 0.8l-1.4 0.8l-0.8 1.4l-0.8 -1.4l-1.4 -0.8l1.4 -0.8ZM105.2 76.8l0.6 1.1l1.1 0.6l-1.1 0.6l-0.6 1.1l-0.6 -1.1l-1.1 -0.6l1.1 -0.6ZM98 74.6l0.6 1.2l1.2 0.6l-1.2 0.6l-0.6 1.2l-0.6 -1.2l-1.2 -0.6l1.2 -0.6ZM105.1 85.2l0.5 1l1 0.5l-1 0.5l-0.5 1l-0.5 -1l-1 -0.5l1 -0.5ZM111.5 80.1l0.8 1.5l1.5 0.8l-1.5 0.8l-0.8 1.5l-0.8 -1.5l-1.5 -0.8l1.5 -0.8ZM99.8 86.2l0.5 1l1 0.5l-1 0.5l-0.5 1l-0.5 -1l-1 -0.5l1 -0.5ZM100.7 58.1l0.5 1l1 0.5l-1 0.5l-0.5 1l-0.5 -1l-1 -0.5l1 -0.5ZM109 67.1l0.8 1.4l1.4 0.8l-1.4 0.8l-0.8 1.4l-0.8 -1.4l-1.4 -0.8l1.4 -0.8ZM106.5 55.9l0.7 1.2l1.2 0.7l-1.2 0.7l-0.7 1.2l-0.7 -1.2l-1.2 -0.7l1.2 -0.7ZM96.3 87l0.6 1l1 0.6l-1 0.6l-0.6 1l-0.6 -1l-1 -0.6l1 -0.6ZM98.7 56l0.7 1.3l1.3 0.7l-1.3 0.7l-0.7 1.3l-0.7 -1.3l-1.3 -0.7l1.3 -0.7ZM102 60.1l0.6 1.1l1.1 0.6l-1.1 0.6l-0.6 1.1l-0.6 -1.1l-1.1 -0.6l1.1 -0.6ZM98.8 79.2l0.8 1.5l1.5 0.8l-1.5 0.8l-0.8 1.5l-0.8 -1.5l-1.5 -0.8l1.5 -0.8ZM108 80.9l0.7 1.3l1.3 0.7l-1.3 0.7l-0.7 1.3l-0.7 -1.3l-1.3 -0.7l1.3 -0.7ZM104.3 55.9l0.6 1.2l1.2 0.6l-1.2 0.6l-0.6 1.2l-0.6 -1.2l-1.2 -0.6l1.2 -0.6ZM102.1 50l0.7 1.4l1.4 0.7l-1.4 0.7l-0.7 1.4l-0.7 -1.4l-1.4 -0.7l1.4 -0.7ZM100.7 70.6l0.7 1.3l1.3 0.7l-1.3 0.7l-0.7 1.3l-0.7 -1.3l-1.3 -0.7l1.3 -0.7ZM107.9 56.2l0.6 1.1l1.1 0.6l-1.1 0.6l-0.6 1.1l-0.6 -1.1l-1.1 -0.6l1.1 -0.6ZM103.3 68.2l0.6 1.2l1.2 0.6l-1.2 0.6l-0.6 1.2l-0.6 -1.2l-1.2 -0.6l1.2 -0.6ZM105.9 75.6l0.5 1l1 0.5l-1 0.5l-0.5 1l-0.5 -1l-1 -0.5l1 -0.5ZM106.3 58.4l0.7 1.2l1.2 0.7l-1.2 0.7l-0.7 1.2l-0.7 -1.2l-1.2 -0.7l1.2 -0.7ZM112.1 86.4l0.8 1.5l1.5 0.8l-1.5 0.8l-0.8 1.5l-0.8 -1.5l-1.5 -0.8l1.5 -0.8ZM101.5 69.1l0.5 1l1 0.5l-1 0.5l-0.5 1l-0.5 -1l-1 -0.5l1 -0.5ZM105 46.2l0.8 1.5l1.5 0.8l-1.5 0.8l-0.8 1.5l-0.8 -1.5l-1.5 -0.8l1.5 -0.8ZM102 88.7l0.7 1.4l1.4 0.7l-1.4 0.7l-0.7 1.4l-0.7 -1.4l-1.4 -0.7l1.4 -0.7ZM97.3 79.2l0.5 1l1 0.5l-1 0.5l-0.5 1l-0.5 -1l-1 -0.5l1 -0.5Z" fill="var(--violet, #4A3560)"/><path d="M103.7 71.8l1 1M109.1 76.5l1 1M104.6 47.4l1 1M99.8 76.8l1 1M98.1 83.5l1 1M106.7 48.6l1 1M109.7 58l1 1M102.5 80.9l1 1M101.1 68.5l1 1M104.3 80.4l1 1M101.1 75.7l1 1M103.1 56.7l1 1M97.8 84.3l1 1M105 77.1l1 1M102.5 76.9l1 1M100.3 74.8l1 1M106.2 58.4l1 1M105.9 74.7l1 1M98 71.4l1 1M99.7 90.7l1 1M105.5 79.2l1 1M102.7 88.3l1 1M105.9 88.6l1 1M107.4 65.7l1 1M98 69.2l1 1M103.4 46.4l1 1M101.8 78.4l1 1M106.3 87.6l1 1M102 80.8l1 1M106.2 86.9l1 1M110.2 89.9l1 1M108.9 72.9l1 1M106.6 50l1 1M99.4 77l1 1M102.1 60.5l1 1M100.1 58.4l1 1M105.7 58.3l1 1M104.7 70.6l1 1M102.9 71.5l1 1" fill="none" stroke="currentColor" stroke-width="0.8" stroke-linecap="round" stroke-linejoin="round"/></svg>